/* XPM */
static char *_1ba3fd1579c41b0daf04cb308834f9bsOPuaePa8fymMiCP[] = {
/* columns rows colors chars-per-pixel */
"64 64 204 2 ",
"   c None",
".  c #3C181C",
"X  c #1F1B27",
"o  c #261E2A",
"O  c #391A20",
"+  c #14243B",
"@  c #1B2A3E",
"#  c #16283E",
"$  c #222C3D",
"%  c #2A2B3C",
"&  c #2A313E",
"*  c #36363C",
"=  c #37393F",
"-  c #3A393E",
";  c #38282F",
":  c #4D0E1E",
">  c #690E1C",
",  c #591727",
"<  c #5E1E36",
"1  c #4B1C2D",
"2  c #6A1729",
"3  c #7D192D",
"4  c #76152A",
"5  c #761A32",
"6  c #472335",
"7  c #41383F",
"8  c #7D243A",
"9  c #752136",
"0  c #6F2A3C",
"q  c #1C2C40",
"w  c #1F2743",
"e  c #262F45",
"r  c #30214C",
"t  c #253142",
"y  c #2D3444",
"u  c #2D374A",
"i  c #323543",
"p  c #363943",
"a  c #3A3B42",
"s  c #3A3D4A",
"d  c #323A4A",
"f  c #372652",
"g  c #513D4A",
"h  c #7C2E45",
"j  c #752A42",
"k  c #76384F",
"l  c #374455",
"z  c #434145",
"x  c #44434A",
"c  c #4B434A",
"v  c #4F484C",
"b  c #52484D",
"n  c #474954",
"m  c #5B5256",
"M  c #66575B",
"N  c #7E5D5D",
"B  c #634F55",
"V  c #695964",
"C  c #73676E",
"Z  c #9D0B1F",
"A  c #860D1E",
"S  c #B9091A",
"D  c #AD081E",
"F  c #970D22",
"G  c #88162B",
"H  c #9B132A",
"J  c #88152A",
"K  c #A20E24",
"L  c #AD0C21",
"P  c #B40C21",
"I  c #BB0D24",
"U  c #A8152A",
"Y  c #B3142B",
"T  c #BD132B",
"R  c #BC1C2C",
"E  c #A81C31",
"W  c #B41C34",
"Q  c #BE1B31",
"!  c #89293C",
"~  c #98243C",
"^  c #B82235",
"/  c #CB091F",
"(  c #C70916",
")  c #D6051C",
"_  c #DD061C",
"`  c #DD091E",
"'  c #D3091E",
"]  c #E3051C",
"[  c #EC051B",
"{  c #EB081F",
"}  c #EA0319",
"|  c #F60016",
" . c #FE0017",
".. c #F3041B",
"X. c #FE0018",
"o. c #CC0B22",
"O. c #C60D23",
"+. c #D30B22",
"@. c #DC0C23",
"#. c #CC1226",
"$. c #C3172E",
"%. c #CD132B",
"&. c #C71B2F",
"*. c #D7172B",
"=. c #C21D35",
"-. c #CC1631",
";. c #D41A31",
":. c #DC1B33",
">. c #E50B23",
",. c #EA0A21",
"<. c #E21329",
"1. c #C32C38",
"2. c #9C2843",
"3. c #9B3A45",
"4. c #8D2F47",
"5. c #A42B42",
"6. c #A13340",
"7. c #B72842",
"8. c #CC3444",
"9. c #934558",
"0. c #86515F",
"q. c #9A404D",
"w. c #B4555E",
"e. c #AF4451",
"r. c #B15660",
"t. c #AB5362",
"y. c #906F75",
"u. c #B86C6D",
"i. c #A36C73",
"p. c #A67376",
"a. c #B57678",
"s. c #C64E55",
"d. c #C15C67",
"f. c #C8676B",
"g. c #C87676",
"h. c #D07474",
"j. c #A8807F",
"k. c #565E99",
"l. c #5F76DB",
"z. c #7A7FCA",
"x. c #5976E3",
"c. c #5C7FFD",
"v. c #5677F0",
"b. c #AB1698",
"n. c #BF0FA8",
"m. c #AF13A0",
"M. c #BB23AA",
"N. c #C614AD",
"B. c #CD0DB0",
"V. c #D90EB6",
"C. c #CC15B2",
"Z. c #D613B6",
"A. c #CE21B7",
"S. c #C221B0",
"D. c #997D80",
"F. c #826596",
"G. c #B17E80",
"H. c #AC7680",
"J. c #9948A0",
"K. c #B045AE",
"L. c #B056B1",
"P. c #A061AB",
"I. c #F306C5",
"U. c #ED13C6",
"Y. c #7988E8",
"T. c #9E879C",
"R. c #BE918F",
"E. c #AF8A8C",
"W. c #9583A5",
"Q. c #B597B2",
"!. c #CC8784",
"~. c #C49794",
"^. c #CC9B96",
"/. c #CA9D9A",
"(. c #D69894",
"). c #CB8F8B",
"_. c #E09D97",
"`. c #D6A29C",
"'. c #DDA39D",
"]. c #E1A69F",
"[. c #DCA6A1",
"{. c #D9ABAC",
"}. c #D9A9A4",
"|. c #CEA3AA",
" X c #E1A7A0",
".X c #E5ABA3",
"XX c #EAADA5",
"oX c #E3AFAB",
"OX c #EEB0A7",
"+X c #E6B2AD",
"@X c #EDB2AA",
"#X c #F3B4AB",
"$X c #F6B9AF",
"%X c #FEBBAF",
"&X c #FEBAAF",
"*X c #F0B0A6",
"=X c #F5B9B1",
"-X c #FFBBB0",
";X c #FEBCB1",
":X c #FFBBB0",
">X c #F3B6B2",
",X c #9F94D1",
"<X c #858CE3",
"1X c #C7A6C6",
/* pixels */
"                                            9 j h W $.&.^ 5.                                                                    ",
"                                  ` ] } ....[ { >.,.| X.| ....,.O.K                 8                                           ",
"                              ! =.;.*.<.;.:.>... . .X. . . . . . .| _ K   1         E 4                                         ",
"                                                $.@.| X. . .X.X.X. . .| / J E E       G 2 ( S                                   ",
"                                                  G +.X. . .X.X.X. .X.X. ...>...@.    P S (                                     ",
"                                              9 T { | X.X. .X.X.X.X. .X.X. . . . ...@.{ _ K 2 6                                 ",
"                                          $.#.] |  . . .X.X.X.X.X.X.X. . .X. . .X.X.X.X.X.{ K                                   ",
"                                      #.{ |  . .X. . .X.X.X.X.X.X.X.X.X.X.X.X.X. .X.X.X. .X.| I 8           9.k h 4.            ",
"                                    +.|  . .X.X. .X.X.X.X.X.X.X.X.X.X.X.X.X.X.X.X. . . .X.X.X.X.@.j     I _ { ] Y W 2.          ",
"                %.,.{ ......{ ..{ { | X. .X.X.X.X.X.X.X.X.X.X.X.X.X.X.X.X.X.X.X.X.X.X.X.X.X. . .X.#.K ] X.X.} E                 ",
"            #.{ | ....,...| X. . . .X. .X.X.X.X.X.X.X.X.X.X.X.X.X.X.X.X.X.X.X.X.X.X.X.X.X.X. .X. .X.X.X. .| H                   ",
"          Q >.*.;.        -... .X.X. . .X.X.X.X.X.X.X.X.X.X.X.X.X.X.X.X.X.X.X.X.X.X.X.X.X.X.X.X. . . .X. .I                     ",
"                        =.,.X. .X.X.X.X.X.X.X.X.X.X.X.X.X.X.X.X.X.X.X.X.X.X.X.X.X.X.X.X.X.X.X.X.X.X.X. ...G                     ",
"                      =... . .X.X.X.X.X.X.X.X.X.X.X.X.X.X.X.X.X.X.X.X.X.X.X.X.X.X.X.X.X.X.X.X.X.X.X.X. .] 4                     ",
"                    %... .X. .X.X.X.X.X.X.X.X.X.X.X.X.X.X.X.X.X.X.X.X.X.X.X.X.X.X.X.X.X.X.X.X.X.X.X.X. .X.o.<                   ",
"                  >.X.X.X. .X.X.X.X.X.X.X.X.X.X.X.X.X.X.X.X.X.X.X.X.X.X.X.X.X.X.X.X.X.X.X.X.X.X.X.X.X.X. .X.H                   ",
"                @. .X. . .X.X.X.X.X.X.X.X.X.X.X.X.X.X.X.X.X.X.X.X.X.X.X.X.X.X. . . .X.X.X.X.X.X.X.X.X. .X. .o.                  ",
"              #.| X. .X.X.X.X.X.X.X.X.X.X.X.X.X.X.X.X.X.X.X.X.X.X.X.X.X.X.X. . . . . .X.X.X.X.X.X.X.X.X. . .{ 5                 ",
"            3 {  .X.X.X.X.X.X.X.X.X.X.X.X.X.X.X.X.X.X.X.X.X.X.X.X.X.X.X.X. . .| .. .X.X.X.X.X.X.X.X.X. .X.X.X.o.!               ",
"            O.X. .X.X.X.X.X.X.X.X.X.X.X.X.X.X.X.X.X.X.X.X.X.X.X.X.X.X.X.X.X. .R w.%.|  . .X.X.X.X.X.X. .X.X. .X.>.2.            ",
"          *.| X. .X.X.X.X.X.X.X.X.X.X.X.X.X.X.X.X.X.X.X.X.X.X.X.X.X.X.X. . .+.u.=XH.W |  . . .X.X.X.X. .X. .X.{ | >.            ",
"        @...` |  .X.X.X.X.X.X.X.X.X.X.X.X.X.X.X.X.X.X.X.X.X.X.X.X. . .X.| #.g.$X-X=Xp.T  .X. .X.X.X.X.X. . .{ 5 U ,.%.          ",
"      ;.:.  Y |  . . .X.X.X.X.X.X.X.X.X.X.X.X.X.X.X.X.X.X.X.X.X. . .X.| R !.$X-X-X-X@X9._  . .X.X.X.X.X. .X.,.<     Q 5.        ",
"    ^ 8.  ~ #.+.X.X. .X.X.X.X.X.X.X.X.X.X.X.X.X.X.X.X.X.X.X. . . .X...^ ).;X%X%X-X-X;XE.A X. . .X.X.X.X.X. .| 2       k         ",
"    7.        +.X.X.X.X.X.X.X.X.X.X.X.X.X.X.X.X.X.X.X.X.X.X. . . .] e.(.;X%X%X-X-X-X-X@Xk ]  .X.X.X.X.X.X. .| 3                 ",
"  2.        T _ | X.X.X.X.X.X.X.X.X.X.X.X.X.X.X.X.X.X.X. .X. .| #.u.@X;X%X%X%X%X-X;X;X;Xy.D X.X.X.X.X.X.X. .X.Y                 ",
"          ~ W 4 ] X.X.X.X.X.X.X.X.X.X.X.X.X.X.X.X.X.X. . . .} 1.).$X-X-X-X%X%X%X#X'.p.N g G | X.X. .X.X.X. . .+.                ",
"                ]  . .X.X.X.X.X.X.X.X.X.X.X.X.X.X. . .X. .` s..X;X%X-X#X|.1X1XQ.y.V X o p.0.)  . . .X.X.X.X. .@.                ",
"                ]  .X. . .X.X.X.X.X.X.X.X.X.X.X. .X. .| ;.g.#X;X%X#X.XT.l.c.c.x.    M ).;Xp.o. .X. . .X.X.X. .@.                ",
"              I | .. .X.X. .X.X.X.X.X.X.X.X.X. .X. .{ 8.(.;X-X-X#X      x.c.c.v.k.j.XX;X;Xp./ X.] |  .X.X.X. .,.h   0 6         ",
"            U ] L K | X. .X.X.X. .X.X.X. .X.X. .| ;.h.#X;X-X-X%X$X.X    z.Y.<X,X{.$X-X%X;Xi.) ] ! U |  . .X. .| / S Z :         ",
"            Y H   2 {  .X. .X. .X.X. . .X. .| ` s._.;X-X%X%X-X-X%X%X$X$X>X>X=X-X-X%X%X%X.Xe.) 3.'.i.S X.X. .X.| ' K             ",
"                  K |  . . . .X. .| <.^ _ } 1.g.#X;X-X%X-X-X-X-X-X-X%X%X%X%X%X%X%X-X-X;Xp.U 3.^.;X@X3.}  .X. .] 2               ",
"                I | X. . . . . .} 8.!.3.Y w.].;X-X-X%X-X-X-X-X-X-X-X-X-X-X-X-X-X-X-X-X#Xt.d. X;X-X;XG.I  .X. .] ,               ",
"            H _ | X. .X.X. .} Q f.*X.Xu.(.$X;X%X-X%X-X-X-X-X-X-X-X-X-X-X-X-X-X-X-X-X-XXX(.#X-X-X-X-X@Xq.}  . .] :               ",
"          P } X. .| } D _ &.f.'.-X;X-X;X;X%X-X%X%X-X-X-X-X-X-X-X-X-X%X-X-X-X-X-X-X-X-X%X;X-X-X%X%X%X;Xa.'  ...[ Z               ",
"        O.| | { ;.Y 3 2 F   }.;X%X-X%X-X-X-X%X-X-X-X-X-X-X-X-X-X-X%X-X%X$X%X%X-X-X-X-X-X%X%X%X-X-X%X;X`.W X.Y A ' 3             ",
"      2 S ( P               E.#X%X%X%X%X-X-X-X-X-X-X-X-X%X-X-X-X-X%X-X#XOX-X%X-X-X-X-X-X-X-X-X-X-X%X-X@X6.] >   3 8             ",
"                              +X-X%X-X-X%X-X-X-X-X%X%X-X-X-X-X%X%X-X$X].#X-X-X%X-X-X-X-X-X-X-X-X%X%X-X-Xr.Z       %             ",
"                                oX$X%X-X%X-X-X-X-X-X-X$XOX#X#X#X#XXX X#X-X%X-X-X-X-X-X-X-X-X-X%X-X%X%X;Xa.<                     ",
"                                  {.-X%X%X%X-X-X-X-X-X%XXX].]. X.X#X$X-X%X%X%X-X%X-X-X-X-X-X-X-X-X-X#X[.B o                     ",
"                                    {.-X-X-X%X-X-X-X%X-X-X-X%X-X-X-X-X%X-X-X-X-X-X-X%X%X%X-X-X-X#X[.      o                     ",
"                                      |.$X-X%X-X%X-X-X-X%X%X%X%X-X%X%X%X-X-X-X-X-X-X-X%X$X#X.X^.                                ",
"                                        /.#X-X-X;X;X-X-X;X;X-X%X-X-X-X%X%X$X#X#XXX.X[.`.^.                                      ",
"                                          R.`. X X.X.X X`.^. X.X[.[.`.~.y.V M M b c                                             ",
"                                                  c v v x s s           & & = - - = =                                           ",
"                                                  * - - - p y &     $ y i a - - - - a - a                                       ",
"                                              a a - - - - - p i y i   p - - - - - - a - - a                                     ",
"                                          = - a - - - - - - - i i     s - - - - - - - - - - p                                   ",
"                                        a - x z - - - - - - =   y y u s - - - - - - a - - - a                                   ",
"                                      s - - s a - - - - - - s       d s - - - - - - a a - - - x                                 ",
"                                    s a - - a a - - - - - - n     u d a - - - - - - a - - - - s                                 ",
"                                    a - - - - - - - - - - a 7 . . O ; - - - - - - - - - - - - =                                 ",
"                                    - - - - - * - - = - a a x       ; - - a - a - - m M m m M C                                 ",
"                                  v v x z z z z & @ @ @ @ @ q q # # q $ t t t t t $ D.#X@X#X#X+X                                ",
"                                  /.[.`.^.^.`.~.u + + + + + + + + + + + + + + + + @ E.$X$X$X+X                                  ",
"                                    +X$X-X-X$XD.q t # # # + + + # # + # # + + q @ @                                             ",
"                                          |.  l u n q                     + l C l +                                             ",
"                                              f r f f                     f f e w w                                             ",
"                                              B.N.C.B.                    V.B.m.n.b.                                            ",
"                                              I.C.Z.V.                    I.Z.S.U.V.                                            ",
"                                              U.A.C.N.                    A.K.P.L.M.                                            ",
"                                              J.P.L.                          W.F.                                              ",
"                                                                                                                                "
};
