/* XPM */
static char *add53615c4584a27bddd3219082882516UeWgXkzvirDIWjt[] = {
/* columns rows colors chars-per-pixel */
"64 64 215 2 ",
"   c #221620",
".  c #14243B",
"X  c #1F2D3E",
"o  c #222C3C",
"O  c #352934",
"+  c #2B323F",
"@  c #36373C",
"#  c #3B3A3F",
"$  c #6A0E1C",
"%  c #7A1624",
"&  c #51252B",
"*  c #6D2336",
"=  c #77253A",
"-  c #2C3442",
";  c #2C3745",
":  c #333745",
">  c #3C3B41",
",  c #413F43",
"<  c #593A47",
"1  c #6A3B4A",
"2  c #3D4049",
"3  c #43434A",
"4  c #444449",
"5  c #454A55",
"6  c #4D4D55",
"7  c #464C5A",
"8  c #544A55",
"9  c #4C505A",
"0  c #56555D",
"q  c #674A53",
"w  c #7A4A55",
"e  c #62595C",
"r  c #4D5361",
"t  c #5B5C62",
"y  c #685D64",
"u  c #7B5E65",
"i  c #5F626F",
"p  c #78686C",
"a  c #636875",
"s  c #6D6C76",
"d  c #69717C",
"f  c #78757C",
"g  c #B9091E",
"h  c #861C2D",
"j  c #9A1827",
"k  c #951F31",
"l  c #B80C23",
"z  c #AB1727",
"x  c #A41D2C",
"c  c #B4132A",
"v  c #B71629",
"b  c #99273A",
"n  c #912B39",
"m  c #B2212E",
"M  c #AA2438",
"N  c #BC2539",
"B  c #C9091C",
"V  c #D9081C",
"C  c #E5061D",
"Z  c #ED051C",
"A  c #EB091E",
"S  c #F60417",
"D  c #FD0117",
"F  c #F4041B",
"G  c #F4081D",
"H  c #C60E23",
"J  c #D40D21",
"K  c #CD1329",
"L  c #D6142A",
"P  c #C71E34",
"I  c #DE1C33",
"U  c #E30720",
"Y  c #E40C22",
"T  c #ED0A22",
"R  c #F50B21",
"E  c #F90C22",
"W  c #E21126",
"Q  c #E2142B",
"!  c #ED142B",
"~  c #E41E32",
"^  c #C8253C",
"/  c #D2253B",
"(  c #DB2338",
")  c #E0283F",
"_  c #853D4B",
"`  c #913348",
"'  c #92374B",
"]  c #AC2D45",
"[  c #BA2D41",
"{  c #A63C4B",
"}  c #B83943",
"|  c #BD3C50",
" . c #C82B41",
".. c #D0354B",
"X. c #854855",
"o. c #9A4A56",
"O. c #924659",
"+. c #AA4856",
"@. c #AB575A",
"#. c #845C69",
"$. c #945763",
"%. c #B04E65",
"&. c #A75364",
"*. c #B5586D",
"=. c #8C6373",
"-. c #9C6A76",
";. c #8B7377",
":. c #AD686F",
">. c #B66C6D",
",. c #AA6978",
"<. c #BA6977",
"1. c #A87779",
"2. c #B77277",
"3. c #CA485B",
"4. c #C75B6D",
"5. c #D0576A",
"6. c #C56469",
"7. c #D06578",
"8. c #E3717E",
"9. c #6F7683",
"0. c #797D87",
"q. c #7975B8",
"w. c #6D79CE",
"e. c #5F7FF3",
"r. c #5C7FFD",
"t. c #8E7F83",
"y. c #967985",
"u. c #A57B86",
"i. c #CB6C80",
"p. c #C57686",
"a. c #7D8186",
"s. c #7C828B",
"d. c #6E84EE",
"f. c #7D88E6",
"g. c #6181F9",
"h. c #8A8E96",
"j. c #96919A",
"k. c #AA848C",
"l. c #BB8989",
"z. c #BD918E",
"x. c #AA8E96",
"c. c #B78A95",
"v. c #9C9FA5",
"b. c #A796A2",
"n. c #B59DA6",
"m. c #9FA1A8",
"M. c #A6A5AA",
"N. c #B2A4AE",
"B. c #AAADB3",
"V. c #B6A9B3",
"C. c #B5B4B9",
"Z. c #C78987",
"A. c #CF908E",
"S. c #C88694",
"D. c #D58997",
"F. c #C69796",
"G. c #D89B98",
"H. c #E08594",
"J. c #E3989B",
"K. c #DEA49D",
"L. c #E5A69E",
"P. c #C6A4A7",
"I. c #DBA8A4",
"U. c #CCACB9",
"Y. c #D5ADBA",
"T. c #C6B6BA",
"R. c #D8BAB9",
"E. c #E5A5A2",
"W. c #E5ABA3",
"Q. c #E9A9A7",
"!. c #EBACA5",
"~. c #F0AEA5",
"^. c #E3B1AC",
"/. c #EEB2A9",
"(. c #F1B0A7",
"). c #F5B5AC",
"_. c #FAB6AD",
"`. c #FDBAAE",
"'. c #E9B7B6",
"]. c #F4BAB3",
"[. c #F4B8B5",
"{. c #FFBBB0",
"}. c #D8C0BF",
"|. c #EAC2BF",
" X c #B19BC9",
".X c #BABBC6",
"XX c #B4B0CA",
"oX c #C9BDC3",
"OX c #E1B9C1",
"+X c #C9C4C8",
"@X c #D6C7CB",
"#X c #C0C3D0",
"$X c #D6CDD3",
"%X c #DAD3D4",
"&X c #D5D5D8",
"*X c #DBD6D9",
"=X c #DCDBDD",
"-X c #E4C6C9",
";X c #EACFD5",
":X c #E5D7D8",
">X c #DEDDE1",
",X c #E4DEE0",
"<X c #DFE1E4",
"1X c #E4E2E4",
"2X c #EAE1E4",
"3X c #E8E7E9",
"4X c #EDEBED",
"5X c #F1E7EA",
"6X c #F3EBED",
"7X c #EFEEF1",
"8X c #F4EEF0",
"9X c #F4F3F4",
"0X c #FAF5F6",
"qX c #F8F7F8",
"wX c #FFFFFF",
/* pixels */
"wXwXwXwXwXwXwXqX@X4. ./ / / / ( / N F D D D D D D D D D D D D D D D D D D D D D D D D D D D D D F ] T.^ G D F Y 1 oX6XqXwXwXwXwX",
"wXwXwXwXwXwX5Xp.~ G F D D F D F F F D D D D D D D D D D D D D D D D D D D D D D D D D D D D D D D Y v F D F T &.4XqXwXwXwXwXwXwX",
"wXwXwXwXwX-X..R S F E E E F D D D D D D D D D D D D D D D D D D D D D D D D D D D D D D D D D D D D D D D F M $XwXwXwXwXwXwXwXwX",
"wXwXwXwX0X3.E E ~ 5.D.Y.'.8.R D D D D D D D D D D D D D D D D D D D D D D D D D D D D D D D D D D D D D D U u.qXwXwXwXwXwXwXwXwX",
"wXwXwXqXC.4.J.-X6XwXwXwX9XH.E D D D D D D D D D D D D D D D D D D D D D D D D D D D D D D D D D D D D D D M *XwXwXwXwXwXwXwXwXwX",
"wXwXwXwXqXqXwXwXwXwXwX8X5.R D D D D D D D D D D D D D D D D D D D D D D D D D D D D D D D D D D D D D D F X.9XwXwXwXwXwXwXwXwXwX",
"wXwXwXwXwXwXwXwXwXwX0X7.G D D D D D D D D D D D D D D D D D D D D D D D D D D D D D D D D D D D D D D D V 1 4XwXwXwXwXwXwXwXwXwX",
"wXwXwXwXwXwXwXwXwX8Xp.T D D D D D D D D D D D D D D D D D D D D D D D D D D D D D D D D D D D D D D D D F v +XwXwXwXwXwXwXwXwXwX",
"wXwXwXwXwXwXwXwX8XD.! F D D D D D D D D D D D D D D D D D D D D D D D D D D D D D D D D D D D D D D D D D C -.9XwXwXwXwXwXwXwXwX",
"wXwXwXwXwXwXwXqXD.R D D D D D D D D D D D D D D D D D D D D D D D D D D D D D D D D D D D D D D D D D D D D b +XwXwXwXwXwXwXwXwX",
"wXwXwXwXwXwXwX2X..F D D D D D D D D D D D D D D D D D D D D D D D D D D D D D D D D D D D D D D D D D D D D K j.wXwXwXwXwXwXwXwX",
"wXwXwXwXwXwXqX*.G D D D D D D D D D D D D D D D D D D D D D D D D D D D D D D D D D D D D D D D D D D D D D Y k.wXwXwXwXwXwXwXwX",
"wXwXwXwXwXwX:X! F D D D D D D D D D D D D D D D D D D D D D D D D D D D D D D D D D D D D D D D D D D D D D F $.9XwXwXwXwXwXwXwX",
"wXwXwXwXwXwXu.R D D D D D D D D D D D D D D D D D D D D D D D D D D D D D D D F S D D D D D D D D D D D D D D L 1.9XwXwXwXwXwXwX",
"wXwXwXwXwX6XM F D D D D D D D D D D D D D D D D D D D D D D D D D D D D D D F J  .G D D D D D D D D D D D D D F Q P.wXwXwXwXwXwX",
"wXwXwXwX0XS.T D D D D D D D D D D D D D D D D D D D D D D D D D D D D D D D G % E.= G D D D D D D D D D D D D D S  .3XwXwXwXwXwX",
"wXwXwXqXY.Q F D D D D D D D D D D D D D D D D D D D D D D D D D D D D D D D K Z.{.z.] F D D D D D D D D D D D T S R S.qXwXwXwXwX",
"wXwXwX;X~ F U F D D D D D D D D D D D D D D D D D D D D D D D D D D D D D V @._.{._.#.K D D D D D D D D D D Z = [ F  .5XwXwXwXwX",
"wXwX0Xi.R 5.Q.R D D D D D D D D D D D D D D D D D D D D D D D D D D D D F @.(.{.{.`.!.n F D D D D D D D D D C =.,X%.T k.qXwXwXwX",
"wXwX-X) i.@X..F D D D D D D D D D D D D D D D D D D D D D D D D D D D Z n Q.`.{.{.{._.$.g D D D D D D D D D F O.8X2X<.+.4XwXwXwX",
"wX0X7.7.5X<.( K D D D D D D D D D D D D D D D D D D D D D D D D D D F M !._.{.{.{.{.{.u.$ F D D D D D D D D F ' 7XwX8Xy.&XwXwXwX",
"wX:X5.6XqX-.$X( F D D D D D D D D D D D D D D D D D D D D D D D D F j L._.{.`.{.{.{.{.W.& Z D D D D D D D D F ` 4XwXwX9X9XwXwXwX",
"qX%.OXwXwX4XS.R D D D D D D D D D D D D D D D D D D D D D D D D F x G.`.{.{.{.{.{.{.{._.-.V D D D D D D D D F ] 7XwXwXwXwXwXwXwX",
"@X*.6XwXwX2X/ l F D D D D D D D D D D D D D D D D D D D D D D F m W.`.{.{.{.{.{.{.{.{._.l.l D D D D D D D D D P :XwXwXwXwXwXwXwX",
"N.$XwXwXqXS.3.#.T D D D D D D D D D D D D D D D D D D D D D S x E._.{.{.{.{.{.{.{.(.l.q O ` D D D D D D D D D I C.wXwXwXwXwXwXwX",
"3XqXwXwXwXx.2Xn.Y D D D D D D D D D D D D D D D D D D D D F x J._.`.{.{.].[.[.^.;.p O   q < C D D D D D D D D Q V.wXwXwXwXwXwXwX",
"wXwXwXwXwX9XwXn.Y D D D D D D D D D D D D D D D D D D D F N !._.`.{.{.^.q.f.f.w..X>Xs u W.=.L D D D D D D D D W N.wXwXwXwXwXwXwX",
"wXwXwXwXwXwXwXy.T D D D D D D D D D D D D D D D D D D S z Q.{.{.{.{.R..Xe.r.r.g.XX>Xu /._.1.I D D D D D D D D Q N.wXqX9XwXwXwXwX",
"wXwXwXwXwXwX:X^ F F D D D D D D D D D D D D D D D D F m G.`.`.`.!.:XqX#Xg.r.r.g.XXy.).{._.1.K F F D D D D D D ! n.9XM.y =XwXwXwX",
"wXwXwXwXwXwXc.T J z F D D D D D D D D D D D D D F Z } (.`.{.{.`.).:X4X9Xd.r.r.d.XX].{.`._.1.J F % B D D D D D F h h l 1 4XwXwXwX",
"wXwXwXwXwX9XN W c.&.F D D D D D D D D D D D D D Z @.(.`.{.`.{.`.{.`.[.|.U. XY.'.{.`.{.`.).#.Z B :.o.Z D D D D F G Y _ ,XqXwXwXwX",
"wXwXwXwXqXN.P c.2Xw F D D D D D D D D D D D D V 6.~.`.{.{.`.`.{.`.{.`.{.{.{.{.{.{.{.{.`.!.O.U 1 !.1.c F D D D F P F.,XqXwXwXwXwX",
"wXwXwXwXqXb.k.9X%Xh F D D D D D D F G H V F K >._.`.{.{.{.{.{.{.{.{.{.{.{.{.{.{.{.{.{._.Z.v k G._./.* F D D D C u qXwXwXwXwXwXwX",
"wXwXwXwXwXqXqX0X,.T D D D D D D F A +.w Y v Z._.`.{.`.{.{.{.{.{.{.{.{.{.{.{.{.{.{.{.{.).2.^ z._.{.).1.V D D D C q wXwXwXwXwXwXwX",
"wXwXwXwXwXwX4X:.Y D D D D D D F J 6.E.[ b A.`.`.{.{.{.{.{.{.{.{.{.{.{.{.{.{.{.{.{.{.{./.$.A.{.{.{.{.G.z D D D C < wXwXwXwXwXwXwX",
"wXwXwXwXwX1X%.T D D D D D D F v 2._.L.1.!.`.`.`.{.{.{.{.{.{.{.{.{.{.{.{.{.{.{.{.{.{.{.!.K.`.{.{.{.{.(._ F D D C < wXwXwXwXwXwXwX",
"wXwXwXwX0X+.G D D D F V Y T } E._.{.`.`.`.`.{.{.{.{.{.{.{.{.{.{.{.{.{.{.{.{.{.{.{.{.{.`.`.{.{.{.{.{._.-.Y D D Z * 1XwXwXwXwXwXwX",
"wXwXwX8X:.A F D F T v % P $.!._.{.{.{.{.{.{.{.{.{.{.{.{.{.{.{.{.{.{.{.{.{.{.{.{.{.{.{.{.{.{.{.{.{.{.`.G.g F Q B W k.wXwXwXwXwXwX",
"wXwXqXU.Q F F W | ,.@X=.T.=XI.{.{.{.{.{.{.{.{.{.{.{.{.{.{.{.{.{.{.{.{.`.{.{.`.{.{.{.{.{.{.{.{.{.{.{.`.).j F k X.K _ wXwXwXwXwXwX",
"wXwX9XX.I K { x.=XqXwXqXwXqX@X{.`.{.{.{.{.{.{.{.{.{.{.{.{.{.{.{.{.{.{._.{.{.`.{.{.{.{.{.{.{.{.{.{.{.{._.{ Z $.3X#.' wXwXwXwXwXwX",
"wXwXwX9X%X*XqXwXwXwXwXwXwXwX6X[.`.{.{.{.{.{.{.{.{.{.{.{.{.{.{.{.{.`.`.K._.{.{.{.{.{.{.{.{.{.{.{.{.{.{._.+.H T.wX=X8 wXwXwXwXwXwX",
"wXwXwXwXwXwXwXwXwXwXwXwXwXwXwX;X{.`.{.{.{.{.{.{.{.{.{.{.{.{.{.`.`.{./.K.`.{.{.{.{.{.{.{.{.{.{.{.{.{.`._.>.x +XwX4Xa wXwXwXwXwXwX",
"wXwXwXwXwXwXwXwXwXwXwXwXwXwXwX0X-X{.`.{.{.{.{.{.{.{.{.`.).).).).).).I.`.`.{.{.{.{.{.{.{.{.{.{.{.`.`.`._.1.q 1XwXqX1XwXwXwXwXwXwX",
"wXwXwXwXwXwXwXwXwXwXwXwXwXwXwXwX1X'.{.{.{.{.{.{.{.{.{.`.!.W.E.E.W.)._.{.{.{.{.{.{.{.{.{.{.{.{.{.`.`.`.^.t.8 ,XwXwXwXwXwXwXwXwXwX",
"wXwXwXwXwXwXwXwXwXwXwXwXwXwXwXwXwX+X].{.{.{.{.{.{.{.{.{.{.{.{.`.`.{.{.{.{.{.{.{.{.`.`.`.{.{.{.{._.].R.@X.X3 3XwXwXwXwXwXwXwXwXwX",
"wXwXwXwXwXwXwXwXwXwXwXwXwXwXwXwXwX9XoX{.{.{.{.{.{.{.{.{.{.{.`.`.{.{.{.{.{.{.{.{.{.`.`.{.{.{.`.{.'.T.qXwX+Xf 9XwXwXwXwXwXwXwXwXwX",
"wXwXwXwXwXwXwXwXwXwXwXwXwXwXwXwXwXwX3XR.{.`.{.{.{.{.{.{.{.{.{.{.{.{.{.{.{.{.{.{.{.{.{.{.`.{.^.U.1XwXwXwX+X+XqXwXwXwXwXwXwXwXwXwX",
"wXwXwXwXwXwXwXwXwXwXwXwXwXwXwXwXwXwXwX1XR.{.{.{.{.{.{.{.{.{.{.{.{.{.{.{.{.{.{.{.{._.!.^.R.+X4XwXwXwXwXwXwXwXwXwXwXwXwXwXwXwXwXwX",
"wXwXwXwXwXwXwXwXwXwXwXwXwXwXwXwXwXwXwXwX=X'._.{.`.`.`.{.{.{.{.`._.)._.).!.I.F.z.;.b.1XqXqXwXwXwXwXwXwXwXwXwXwXwXwXwXwXwXwXwXwXwX",
"wXwXwXwXwXwXwXwXwXwXwXwXwXwXwXwXwXwXwXwXwX2XR.P.z.z.F.F.k.;.R.;X:X:X:X%X6 > > , , t =XqXwXwXwXwXwXwXwXwXwXwXwXwXwXwXwXwXwXwXwXwX",
"wXwXwXwXwXwXwXwXwXwXwXwXwXwXwXwXwXwXwXwXwXwXqX0X6Xf , , > : 0.9XwXwXqXv.: + # # # # 5 M.9XwXwXwXwXwXwXwXwXwXwXwXwXwXwXwXwXwXwXwX",
"wXwXwXwXwXwXwXwXwXwXwXwXwXwXwXwXwXwXwXwXwXwXwXqX=X4 # # # : : m.9XqXC.: - > # # # # > 4 0.9XwXwXwXwXwXwXwXwXwXwXwXwXwXwXwXwXwXwX",
"wXwXwXwXwXwXwXwXwXwXwXwXwXwXwXwXwXwXwXwXwXwXqXC.0 > # # # > : : d +X2 5 > # # # # # 2 > 4 C.wXwXwXwXwXwXwXwXwXwXwXwXwXwXwXwXwXwX",
"wXwXwXwXwXwXwXwXwXwXwXwXwXwXwXwXwXwXwXwXwX4Xf > > # # # # # > d a.0.=XC.3 # # # # # # # > 6 4XwXwXwXwXwXwXwXwXwXwXwXwXwXwXwXwXwX",
"wXwXwXwXwXwXwXwXwXwXwXwXwXwXwXwXwXwXwXwX1X6 > > # # > # # # > a.C.>X3XM., # # # # # # # # > v.qXwXwXwXwXwXwXwXwXwXwXwXwXwXwXwXwX",
"wXwXwXwXwXwXwXwXwXwXwXwXwXwXwXwXwXwXwX9Xa > > 3 # # # # # # 4 i 9 5 r 0 > # # # # # > # # # t qXwXwXwXwXwXwXwXwXwXwXwXwXwXwXwXwX",
"wXwXwXwXwXwXwXwXwXwXwXwXwXwXwXwXwXwXqXa., > 4 > # # # # # # 5 1X<X+XC.5 > # # # # # > > # # > 3XwXwXwXwXwXwXwXwXwXwXwXwXwXwXwXwX",
"wXwXwXwXwXwXwXwXwXwXwXwXwXwXwXwXwXwX1X9 > # > > # # # # # # 7 a 9.s.h.3 > # # # # # 2 > # # # a.qXwXwXwXwXwXwXwXwXwXwXwXwXwXwXwX",
"wXwXwXwXwXwXwXwXwXwXwXwXwXwXwXwXwXwXh.3 # # > > # # # # # > 9.B.h.0.9.> # # # # # # > > # # # 0 4XwXwXwXwXwXwXwXwXwXwXwXwXwXwXwX",
"wXwXwXwXwXwXwXwXwXwXwXwXwXwXwXwXwXwX6 > # # > # # # # # # # 9 oX$X&X&X2 # # # # # # # # # # # 4 =XwXwXwXwXwXwXwXwXwXwXwXwXwXwXwX",
"wXwXwXwXwXwXwXwXwXwXwXwXwXwXwXwXwX&X4 # # # # @ # # # # # # T.& & & & > # # # # # # # # > # # > &XwXwXwXwXwXwXwXwXwXwXwXwXwXwXwX",
"wXwXwXwXwXwXwXwXwXwXwXwXwXwXwXwXqXM., # # # # @ # # # # > # 1X*X*X*XC.> # # # > # # e 0 6 8 0 p C.qXwXwXwXwXwXwXwXwXwXwXwXwXwXwX",
"wXwXwXwXwXwXwXwXwXwXwXwXwXwXwXwXqXt , > > > > # + X X o - o d s.d 0.9.- ; ; ; ; ; - x./././.).'.@XqXwXwXwXwXwXwXwXwXwXwXwXwXwXwX",
"wXwXwXwXwXwXwXwXwXwXwXwXwXwXwXwX9X;.;.p e e y p o . . . . . . . . . . . . . . . . . P.`.{.`.{.}.qXwXwXwXwXwXwXwXwXwXwXwXwXwXwXwX"
};
