/* XPM */
static char *cb729601bada48d6ac10e1040cee0c3393i4h1KCIgBxAd3S[] = {
/* columns rows colors chars-per-pixel */
"64 64 181 2 ",
"   c None",
".  c #010202",
"X  c #0A0D0D",
"o  c #0E1315",
"O  c #131516",
"+  c #1C1F20",
"@  c #1C2123",
"#  c #252828",
"$  c #27292A",
"%  c #2C2F31",
"&  c #2E383F",
"*  c #31363B",
"=  c #363A3C",
"-  c #3E3E3F",
";  c #403F3F",
":  c #34463C",
">  c #3E413F",
",  c #354C3C",
"<  c #3A4A3E",
"1  c #314535",
"2  c #2B5C37",
"3  c #2E5D3B",
"4  c #245B34",
"5  c #33533C",
"6  c #38523F",
"7  c #315C3D",
"8  c #2D643C",
"9  c #2A6B3B",
"0  c #236333",
"q  c #30623E",
"w  c #25753C",
"e  c #2A743E",
"r  c #237C3A",
"t  c #267E3B",
"y  c #40403F",
"u  c #2F3F47",
"i  c #353D41",
"p  c #3D3E40",
"a  c #403F40",
"s  c #2F424C",
"d  c #374145",
"f  c #3E4142",
"g  c #364E40",
"h  c #3A4A43",
"j  c #35464C",
"k  c #3C4649",
"l  c #3D4A4D",
"z  c #37494D",
"x  c #2E5F41",
"c  c #375441",
"v  c #305A41",
"b  c #385443",
"n  c #374851",
"m  c #3C4E53",
"M  c #3D5158",
"N  c #2D6D41",
"B  c #2F6542",
"V  c #306343",
"C  c #267741",
"Z  c #2A7B40",
"A  c #404040",
"S  c #444748",
"D  c #444A4B",
"F  c #4A4C4D",
"G  c #4B504F",
"H  c #43504B",
"J  c #4C4F51",
"K  c #4B5153",
"L  c #4F5658",
"P  c #4C5C58",
"I  c #515455",
"U  c #525658",
"Y  c #545C5D",
"T  c #595C5D",
"R  c #575E60",
"E  c #5B5F61",
"W  c #43656B",
"Q  c #5D6264",
"!  c #5C6669",
"~  c #53696E",
"^  c #5B6F73",
"/  c #606365",
"(  c #636669",
")  c #636A6D",
"_  c #696B6D",
"`  c #646D71",
"'  c #6A6E71",
"]  c #716F70",
"[  c #637276",
"{  c #6E7375",
"}  c #6D7678",
"|  c #6D797C",
" . c #61737A",
".. c #727273",
"X. c #737476",
"o. c #747476",
"O. c #727678",
"+. c #757778",
"@. c #717578",
"#. c #797778",
"$. c #75797B",
"%. c #767A7D",
"&. c #757B7D",
"*. c #797879",
"=. c #79797A",
"-. c #7A797A",
";. c #7A7A7B",
":. c #7A7B7D",
">. c #7D7B7C",
",. c #7E7B7C",
"<. c #7B7C7D",
"1. c #7D7C7D",
"2. c #7E7C7C",
"3. c #7E7C7D",
"4. c #7F7D7D",
"5. c #7E7D7E",
"6. c #7D7D7E",
"7. c #7D7C7D",
"8. c #807D7E",
"9. c #1C8439",
"0. c #1E8D39",
"q. c #148C31",
"w. c #189637",
"e. c #1E9039",
"r. c #189E38",
"t. c #23833B",
"y. c #218B3A",
"u. c #20963E",
"i. c #19A637",
"p. c #15A63A",
"a. c #1CA33D",
"s. c #18AD3C",
"d. c #15AA37",
"f. c #0EBA33",
"g. c #12B035",
"h. c #11BC36",
"j. c #15B43A",
"k. c #13BB3B",
"l. c #18B23B",
"z. c #0FC437",
"x. c #0ECD37",
"c. c #0ECC3A",
"v. c #11C43C",
"b. c #13CB3D",
"n. c #0CD437",
"m. c #07DF35",
"M. c #09DC37",
"N. c #0DD43B",
"B. c #0BDC3A",
"V. c #08E337",
"C. c #06EA37",
"Z. c #09E339",
"A. c #07ED3A",
"S. c #08E83A",
"D. c #07E437",
"F. c #01FE37",
"G. c #04F439",
"H. c #08F73B",
"J. c #02FC39",
"K. c #03F736",
"L. c #1F9443",
"P. c #268443",
"I. c #238B41",
"U. c #249741",
"Y. c #1FA742",
"T. c #18AF40",
"R. c #18B841",
"E. c #19B744",
"W. c #26AC4D",
"Q. c #25B14B",
"!. c #409159",
"~. c #0ECB41",
"^. c #1BC544",
"/. c #1DD347",
"(. c #557D84",
"). c #6C7E80",
"_. c #647D82",
"`. c #7C7E80",
"'. c #717C80",
"]. c #798184",
"[. c #87A2AA",
/* pixels */
"                                                                                                                                ",
"                                                                                                                                ",
"                                                          X.o.-.<.-.:.-.-.#.-.-.-.-.-.-.-...                                    ",
"                                                } X.-.-.,.,.3.3.3.3.3.<.3.3.3.3.3.3.3.3.3.3.3.`.#.]                             ",
"                                          &.$.-.,.3.3.3.3.3.-.$.&.<.O.O.-.3.,.,.3.3.3.3.3.3.,.,.3.,.-...                        ",
"                                    O.:.:.,.3.3.3.3.3.3.3.3.+.+.&.%.O.@.+.8.3.3.,.3.3.3.3.3.3.3.3.3.3.3.-.o.'                   ",
"                                +.:.,.3.3.3.,.,.,.3.3.,.3.8.+.{ &.&.&.` F T ..-.3.3.3.3.3.3.3.3.3.3.,.3.3.3.,.o.                ",
"                          ` o.-.3.3.3.3.,.3.3.3.3.3.3.3.,.E % % ( $.$.k . . O % T ,.3.3.3.3.3.3.3.3.,.,.3.3.3.-.Q               ",
"                      } $.-.3.3.,.,.,.,.,.3.3.3.3.3.3.3.( o . . X # # . . . . . @ X.3.,.3.3.3.3.3.3.3.3.3.+._ U k D             ",
"                      O.8.3.3.3.3.3.3.3.3.3.3.3.3.3.3.3.( o . . . . . . X O + = Q 3.3.3.3.,.-.+..._ ( E U F A - A f l           ",
"                      Q _ +.-.-.-.,.3.3.3.3.3.3.3.3.3.3.3.) U K J K J U Q ( _ _ _ ( Q T U U K D S A f - - - ; a ; ; k           ",
"                    k - A D J F F K U T Q / / / Q / / / Q Q T I I I J F D S S A A f p f p - f f - A f - f f f f y p f l         ",
"                  - f ; a - - - - - - - - - - a - p p - p f - - - - - ; - - - - - y - f i i d k f > f = d f i i f a ; k         ",
"                  p y ; a f - p f A - - y f y f ; f f - A f f i - - p f f a a f > y - p i i d f f f f i f k f d k f ; f         ",
"                  f ; > a f i i f y = * p i f k a d d i f f f d d i i i f y a f f y p f f f f ; f f f f f k f f f f a k         ",
"                  f a > ; ; f d y f i * i i i k f f f - p f f f i i - i f A f f A a A A y ; y ; A y ; A ; ; a ; ; A ; k         ",
"                  f ; y f ; f f - f f f f p i f ; y A A a A A y p p A A p ; f f A A y y A A A A ; A A A A y A A A A ; d         ",
"                  f - ; f > a a > f a a y y y y f f ; y > > y p y y f y y f ; A A A A A A A A A A A A A A A A A A a > d         ",
"                  f ; f y > > ; f ; > f ; A A A A A A A A A A A A A A A A A A A A A A A A A A A A A A A A A A A A A ; d         ",
"                M f > a A a a f A A A y A A A A A A A A A A A A A A A A A A A A A A A A A A A A A A A A A A A A A A ; f         ",
"                m f > a A A A A A A A A A A A A A A A A A A A A A A A A A A A A A A A A A A A A A A A A A A A A A y a f         ",
"                l > > a A A A A A A A A A A A A A A A > > A A A A A A A A A A A A A A A A A A A A A A A A A A A A y A p         ",
"                l > > A A A A A A A A A A A A A A A A a a > A A A A A A A A A A A A A A A A A A A A A A A A A A A A ; f         ",
"                j f a f A A A A A A A A A A y > a ; a - a A > > A A A A A A A A A A A A A A A A A A A A A A A A A A A -         ",
"                k f f A A A A A A A A A A y a > ; f 3 r 1 a f > a A A A A A A A A A A A A A A A A A A A A A A A A A A -         ",
"                k > > a A A A A A A A A A > a - 9 l.V.K.q.- p a > A A A A A A A A A A A A A A A A A A A A A A A A A A p         ",
"                k f > a A A A A A A A A A a ; > T.F.F.F.C.r f a > f A A A A A A A A A A A A A A A A A A A A A A A A A -         ",
"                k A > a A A A A A A A A A A a > h.F.F.F.F.S.w p a y > A A A A A A A A A A A A A A A A A A A A A A A A -         ",
"                z f ; f A A A A A A A A f ; ; 9 C.F.C.m.F.F.D.w - ; y f f A A A A A A A A A A A A A A A A A A A A A A -         ",
"                j f a > A A A A A A A > a ; f s.F.F.x.2 j.F.F.V.8 p a f f a A A A A A A A A A A A A A A A A A A A A A -         ",
"                n f a > A A A A A A A y ; a 9 A.F.J.0.- 5 V.F.F.v.: p y a > A A A A A A A A A A A A A A A A A A A A A -         ",
"                z f a > A A A A A A A a ; > j.F.F.N.6 a > e.K.F.K.W.h - f p a A A A A A A A A A A A A A A A A A A A A -         ",
"                d y ; > A A A A A A A a - Z G.F.A.t a > a > j.F.F.H.Q.: a > y y A A A A A A A A A A A A A A A A A A A -         ",
"                d y f ; A A A A A A a a > k.F.F.u.> < f > ; 5 h.F.F.J.p.: ; a f a A A A A A A A A A A A A A A A A A A -         ",
"                f ; > a A A A A A y a a 7 V.F.S.3 5 j.e - f ; 5 x.F.F.K.g.b a a y > A A A A A A A A A A A A A A A A A -         ",
"                k p f ; A A A A a > f ; r K.F.C.z.N.K.j.> a a p 3 k.K.F.F.b.7 - a a > A A A A A A A A A A A A A A A A -         ",
"                k p p ; A A A A a > ; ; y.J.n.d.0.r g.z., a a f ; > t.D.F.F.n.8 p ; - a a A A A A A A A A A A A A A A -         ",
"                f f a y A A A A a > a - i.G.9 - a ; < q > a > y f a - 9 N.F.F.D.U.P A - > A > A A A A A A A A A A A A -         ",
"                d > f y A A A A a > a > z.V.6 a y y a a a f A A A f a - 7 j.K.F.K./.!.H a a a f A A A A A A A A A A A -         ",
"                j f y f A A A A > a a , M.B.< a - A A A A A A A A a f y a > t.n.F.F.H.^.e > a A f ; A A A A A A A A ; p *       ",
"                j f ; f A A A A f ; a 9 K.v.h - a A A A A A A A A f ; p ; a ; 5 a.M.F.F.K.l.7 - y f ; A A A A A A A ; f i       ",
"                n f > a A A A A ; a - 0.F.b.< ; > A A A A A A A A A y a y > ; a - 2 h.v.s.y.9 > a > a A A A A A A A ; p i       ",
"                  f y p A A > f f - 5 c.F.b.< ; a A A A A A A A A A A y A a f ; ; - > > - p ; a a y A A A A A A A A > A i       ",
"                  f ; > A A ; a a 5 z.F.F.B.6 a y A A A A A A A A A A A A A A A ; A a a a ; a > a a A A A A A A A A f A =       ",
"                j f ; > A A ; y a > t.B.F.N.h ; a A A A A A A A A A A A A A A A A A A A A A A A A A A A A A A A A A f y -       ",
"                u - f ; A A f a f a - 9.J.a.> p ; A A A A A A y ; a y y f A A A A A f f A A A y f A f A A A A A A A f y =       ",
"                s p a f A A A a A ; - 1 t.5 a f ; A A A A A > a a a a a a a > ; a > ; ; a > ; a a A ; ; A A A A A A f y i       ",
"                M f ; f A A A f a y f p ; a ; p ; ; ; ; ; a > > e 7 < 6 7 < - a ; p ; a ; > a > , - - a y y f - A A f ; p       ",
"                W f ; f A A a a f a ; ; f f ; ; ; p a p f a - N B.V.v.a.a.r., a ; > 9 6 ; a a 1 g.r - a p > a A a A ; p f       ",
"                (.S - f A A a > ; p a ; a ; < e t.P.P.v a ; a > k.F.v.x v r > p - r n.p.8 - a = f.a.- > ; p > A > f ; a p       ",
"                [.G - a A A f > ; V B ; ; a q t.8 9 p.8 a a y p u.F.M.3 c 7 > ; 9 C.j.4 w.8 p - r.r - > < q 3 a p f ; ; f       ",
"                  U - y A A a ; > l.~.V p ; > - a 8 k., a - ; f a.F.S.5 a ; f - y.S.9.- 5 r > - 0.a.V N k.B.r ; a p > ; f       ",
"                  K - a A A a - t.N.L.R.Z > a ; > Y.c.9 c > a > I.N.N.6 a > f - h t.0 ; ; > f - < < h , 8 Z 6 a f a > f f       ",
"                  P - ; A A a > R.c., N E.I.h ; 5 a.v.k.I.h a a p g q > ; a f - p : > p f p a A a a ; a ; ; a y y A > > f       ",
"                  | - a A A a > c C > a h 6 > f f > > > f f A y ; a p p f y p f f - = - = p ; f A f p f f > a y A A y ; k       ",
"                  ^ - A A > A p ; p > f a - = f p ; i p - p f f a y * & i f i i f f = * - > ; f A y y y ; A y A A A ; - f       ",
"                  m - - ; a a ; a a a p f - i i f - * i = - i f f y = - i p p i i i = = A ; f A A A A A A A A A A A > - k       ",
"                    k f f p > ; ; ; - ; f - i f f = = i = - i i p > f A > f p i i p - - A f f y > ; ; A a a y ; ; ; - f l       ",
"                        l k k f f f A f f f f f - - - - - - - - - - - - - - a y ; a ; a - ; - - ; f f a > - f f f f k l         ",
"                                  m ! ) ) ! ! Q R R R Y Y Y Y U L K K D D S A f f f f A S S D D k j k k k k k                   ",
"                                      ~  .].`.3.3.8.3.3.3.3.3.3.<.:.$.$.O.{ ' _ ) ) ` ' { } } [ W                               ",
"                                            _.[ $.$.<.,.3.3.3.3.3.3.3.3.3.3.3.3.3.3.3.3.<.%.'.                                  ",
"                                                      | | %.<.%.&.&.&.&.&.&.`.%.&.).).                                          ",
"                                                                                                                                "
};
