/* XPM */
static char *a61c4b49fc844c29b6849e7a4d2c5540woAFA2q27fL6V7EW[] = {
/* columns rows colors chars-per-pixel */
"64 64 252 2 ",
"   c #190E05",
".  c #171306",
"X  c #16150C",
"o  c #1B150C",
"O  c #16190D",
"+  c #1B190D",
"@  c #171110",
"#  c #161512",
"$  c #1A1612",
"%  c #151914",
"&  c #1B1A13",
"*  c #1B161B",
"=  c #1D1B1C",
"-  c #270D06",
";  c #221406",
":  c #23150C",
">  c #2B150B",
",  c #241A0D",
"<  c #2B1C0E",
"1  c #361A0C",
"2  c #231512",
"3  c #241B12",
"4  c #2B1D12",
"5  c #211D1D",
"6  c #291918",
"7  c #321D13",
"8  c #391C15",
"9  c #182610",
"0  c #1D271B",
"q  c #25220C",
"w  c #2C210E",
"e  c #242214",
"r  c #2C2214",
"t  c #23211C",
"y  c #2C241B",
"u  c #282B18",
"i  c #322314",
"p  c #3B2515",
"a  c #332916",
"s  c #33241A",
"d  c #3B2718",
"f  c #342A1A",
"g  c #3B2B1B",
"h  c #28351A",
"j  c #34371C",
"k  c #1E1B22",
"l  c #1E1B26",
"z  c #221D24",
"x  c #281C26",
"c  c #241D2B",
"v  c #371A29",
"b  c #251D33",
"n  c #281E35",
"m  c #1F2021",
"M  c #1B3A23",
"N  c #242125",
"B  c #2B2726",
"V  c #25212A",
"C  c #29232B",
"Z  c #362B25",
"A  c #283A23",
"S  c #3A352A",
"D  c #262233",
"F  c #2A2333",
"G  c #2C2339",
"H  c #332A37",
"J  c #3A3636",
"K  c #471B18",
"L  c #551B10",
"P  c #631C0E",
"I  c #462A1B",
"U  c #502E1C",
"Y  c #6E2E19",
"T  c #792A17",
"R  c #472C23",
"E  c #562E24",
"W  c #483629",
"Q  c #563928",
"!  c #473B37",
"~  c #543B35",
"^  c #663627",
"/  c #65382C",
"(  c #7A3927",
")  c #3B481A",
"_  c #18482A",
"`  c #0E552F",
"'  c #19522E",
"]  c #1B5A32",
"[  c #24462A",
"{  c #374729",
"}  c #275A33",
"|  c #335032",
" . c #0B6839",
".. c #186638",
"X. c #09733E",
"o. c #15723E",
"O. c #25693B",
"+. c #3B6D3D",
"@. c #524E2F",
"#. c #494538",
"$. c #594537",
"%. c #634429",
"&. c #664738",
"*. c #764939",
"=. c #705133",
"-. c #4C683C",
";. c #736C39",
":. c #3E3745",
">. c #49364A",
",. c #563647",
"<. c #503C54",
"1. c #663148",
"2. c #0D7A42",
"3. c #187943",
"4. c #257441",
"5. c #4A4546",
"6. c #574847",
"7. c #525745",
"8. c #564855",
"9. c #5C545A",
"0. c #654846",
"q. c #66564A",
"w. c #755747",
"e. c #6F4F50",
"r. c #675857",
"t. c #6D6552",
"y. c #756657",
"u. c #5F5A62",
"i. c #675964",
"p. c #6E5D6E",
"a. c #6A6369",
"s. c #75696A",
"d. c #756C6F",
"f. c #777474",
"g. c #7C7C7C",
"h. c #8B2E18",
"j. c #A83518",
"k. c #893926",
"l. c #933A2C",
"z. c #A93A27",
"x. c #B83C27",
"c. c #CB3F26",
"v. c #84472B",
"b. c #98462C",
"n. c #905B2A",
"m. c #864835",
"M. c #954A38",
"N. c #84563A",
"B. c #9B543B",
"V. c #A9472C",
"C. c #B34729",
"Z. c #B4562F",
"A. c #A94835",
"S. c #B64939",
"D. c #A5553B",
"F. c #89693A",
"G. c #A77239",
"H. c #C5462B",
"J. c #C64835",
"K. c #C8563B",
"L. c #D75336",
"P. c #865A45",
"I. c #8F594C",
"U. c #A65B46",
"Y. c #B95944",
"T. c #BB574C",
"R. c #846449",
"E. c #97684B",
"W. c #91744E",
"Q. c #856657",
"!. c #996956",
"~. c #B16B49",
"^. c #A66955",
"/. c #B96954",
"(. c #A5735B",
"). c #897969",
"_. c #977967",
"`. c #91716D",
"'. c #867A78",
"]. c #A6636B",
"[. c #A67967",
"{. c #C85946",
"}. c #D05E45",
"|. c #C96547",
" X c #D7684B",
".X c #C76A54",
"XX c #D96B54",
"oX c #CB7553",
"OX c #D97459",
"+X c #E2704F",
"@X c #E27558",
"#X c #C97863",
"$X c #D77963",
"%X c #158548",
"&X c #788466",
"*X c #A0845D",
"=X c #9E8267",
"-X c #8B8278",
";X c #978479",
":X c #B8866B",
">X c #A68676",
",X c #B68A78",
"<X c #AE9277",
"1X c #D38759",
"2X c #C58768",
"3X c #D98768",
"4X c #C68974",
"5X c #C79777",
"6X c #D89472",
"7X c #E79170",
"8X c #D4A37A",
"9X c #7E7381",
"0X c #857B85",
"qX c #948A86",
"wX c #9B9A99",
"eX c #AB9789",
"rX c #AC938E",
"tX c #BA9785",
"yX c #B7A792",
"uX c #9E9DA0",
"iX c #A59EA4",
"pX c #9CA5A3",
"aX c #A7A4A7",
"sX c #B7B3AD",
"dX c #C99A8A",
"fX c #CD988B",
"gX c #D89D87",
"hX c #CBAA88",
"jX c #D6A688",
"kX c #C4A996",
"lX c #D7AB97",
"zX c #CAB199",
"xX c #D8B597",
"cX c #E7AE91",
"vX c #D2B7AA",
"bX c #D7B7A8",
"nX c #E4B9A6",
"mX c #D1C6AC",
"MX c #D7C8B9",
"NX c #E4C7B0",
"BX c #EAD2BC",
"VX c #BCBEC0",
"CX c #C6BAC0",
"ZX c #D7D4CE",
"AX c #EAD5C3",
"SX c #E7E1D5",
"DX c #EAE9E6",
"FX c #ECEBED",
"GX c #F5F3EF",
"HX c #F5F4F3",
"JX c #FDFDF5",
"KX c #FCFDFC",
/* pixels */
"d d d I d d i r i p i i i i y r 4 < w r r r 4 h ..o.....O.' _ M M 0 0 0 & & & B 7.&X5.| A O + + { h u { A j u j -.h . X X # & & ",
"g g g d p p i i < p i i i r r r < < r r < 4 u ..o.` ....] ] _ M M M 0 0 & & $ $ 4 Z s Z r : o + S h u { { j h ) &X@.. X # $ + o ",
"g g d g p i < < 4 i i i f y y 3 > < r r 4 r ' X. .......] ' _ _ _ M 0 0 & & $ $ 2 2 I I 7 4 + + + . + e u 9 h ) @.{ + X $ $ & o ",
"g p g d i i w w < < < i f r r r r w y r : h X. . . ...] ] ' } } [ 0 0 0 & & 3 , 2 2 6 K K 3 & + X X O O & X O O + O O + O o : 3 ",
"i a a i r < < w w < r a i i r r r r r e 3 ] X. . . ...O.O.4.} _ M 0 0 0 0 Z Q.P.I 2 2 8 K 3 X X & & & # & O O X # # & O X o + 3 ",
"q r w < r r < < r r r i a f a y r 3 < < u  . .2.o...4.4.4.O._ M M [ A 0 g U.$X6X[.4 2 4 8 3 X o $ & & # . O O O X X & X . + & 3 ",
"< < r r < < r , r i a a a f f y r 4 < < h ' 2.X. .3.4.O.O._ _ [ [ [ S W D. X XoX4X&.: 4 8 3 o 3 o $ & & X O X + X X . X X X & & ",
"i i 4 < < < < < y g f g a f i f y 4 r r h ..2. .3.3...O.' _ } _ M #.*.~.+X+X+XOX#XQ.> 2 8 3 + o o o & & O & + + + & X O O + : : ",
"< 4 4 4 4 7 4 < r r f g f a y < r 4 r < j 3.X.2.%X3.4.] _ ' _ M #.*.M.Y.XXXX.X.X#X!.8 2 7 3 + X o o & & & & & X + & + & & o : 4 ",
"i 4 7 7 < > 4 i r i f S S y r < r y r i | 2.X.%X3.3..._ _ _ A #.R.!.^./.#XoXB.m.P.w.8 6 7 : + + o o o X O X X X o & X X O o : 2 ",
"r i 7 7 < > r w i a g f f r 4 4 < < w W O.X.%X%X3.3.` _ ' #.w.(.P.*.E.[.[.!.!.!._.Q.R 6 s < + o X X & O O & + X X o X X . + + X ",
"r 4 7 < < < < r f f f f a r r < r 7 d Q O.X.%X2.3...` ` @.~.$X$XT.A.^.!.4XE.!.N.N.!.0.Z i 4 : o X X & X X X X & + o & & . o X X ",
"4 7 7 < < e r r 4 y f y r r y w w I Q Q } 2.%XX.3. .` { V. XOXOX X.X/.#X#X/.D././.!.w.W 4 4 3 o o + X X + + + X X & & X X o o + ",
"4 7 i < e 3 e + + e < < e e r r 1 U E I A o.2.X.3.` ' N.H. X@XOX XOXOXOXOXXXXXOX$X[.>XR i 4 3 o o & $ o o $ X X o & X X X $ + $ ",
"4 4 < r r e & & & e 3 e r y r < I E &.$.j ..X.X.3.` | Z.J.XX@X@XXXXX|.|.XXXX}.@X#X,Xw.s s 3 + + o $ o X & & $ & & X X X o o o o ",
"4 < < < e & & e 9 e r r r r s 8 Q w.Q.W 9 .. . .3...F.Z.K.@X@X@X X|.OXOX$X$X XOX6XtX7 s s 3 + & & $ $ $ o $ $ + o X o X + + o X ",
"4 < w , : & + 3 e e y r r 4 7 U / / W q q ' ` ` 3.O.G.Z. X@XXX|.|.|..X.X.X$X.XoX6X<Xr y r : + & o o o $ $ o X X o X o o & o o o ",
"4 4 w i 4 & & 3 3 r r y y , 8 E E I < w , _ _ M 3.+.G.C.XX@X XK.OX.XU.U.U.D.{..XgX)., f 4 : + + o o o X o o X X o + o o X o : s ",
"4 < > < r 3 + 3 3 r r r y 4 i I R g a a w M _ { 4.t.G.C.XX X X|.Y.U.U.B.B.M.Y.#XgXq.+ i 4 , + + & $ o o o $ & o + 3 o o X   %.hX",
"4 < < i 4 2 + 3 3 3 4 y r i i f u u u a i A _ 7.4.;.n.j. XK. XY./.^.^.E.^.^.D.3XjX#., r 4 , + o o & o X o $ o & & + X X o > U.cX",
"> 7 < < < : , 3 3 r r 4 < 4 4 s u u u y f u [ w.O.;.v.z.K.J.K.S.A.B.(.[.!.v.D.3XjXS : s s 3 + o + o o X o o o o o + & + o 1 B.3X",
"7 7 < < 4 > > , , : 4 4 4 > > 4 r e e e r e h P.O.-.b.z.J.J.H.J.{.Y.U.^.U.D.oX3X5Xf 3 y r 3 : o : + 3 $ o o o o + & & o + 1 k.Y.",
"4 4 < < 4 < < , < : 4 < , > 4 , 3 e u e y + 9 w.-.-.V.z.x.H.c.c.K.}.|.Y.Y.oX7X$X4Xs 3 y 4 3 3 + o + + o o + + + 3 + + X o 1 ( k.",
"3 3 : : , > , < , , 4 , , 4 4 , : + + + 3 X O @.-.+.l.V.z.x.c.L.L. X X|.oX6X7X$X,Xy 3 r 4 3 + o : + o + o X + + o + + o   > Y Y ",
", + O & + : < 4 4 < 4 4 , 4 4 y 3 o . . X X O i %.} ( A.V.x.H.H.J.Z.Z.|.$X7X3X#X[.r r y 4 : o + : o X o X X + o o o : o   > L L ",
"+ + O & $ 4 4 < 4 4 < 4 3 4 r y y y : o o X . I ( | ^ k.A.C.K.K.K.C.V.|.OX3X3X7XI.3 e y 3 3 + X o o + o X o o o : 3 : o o > K K ",
"; + & = 2 4 4 i 4 4 4 , , 3 3 y y Z y 3 $ X : ^ k.@.Q T k.A.A.C.z.z.{.XX@X3X3X4XR o r 4 3 : + o : o + o o o o o o 3 : o : , 8 K ",
"> o & 5 $ , < 4 4 4 4 : , , 3 y Z Z y y 6 r I v.h.^ %.k.T T T T h.z.{.|.}.OX2X/ , e f 4 3 o + + o + 3 & : : : . : 2 : o o , 7 7 ",
": o & & 2 < 4 4 < < < < 3 3 4 4 Z S y 6 y g E.D.C.b.*.S.z.T k.Y T l.z.A.A./.N.g y y r r 4 o . o o o o & o : : : 4 4 : o + o 4 , ",
"; + & $ 2 , 4 4 < < > , , 4 4 3 6 y B S S *X8XB.|.K.b.z.V.h.k.M.U.T.Y.B.M.( U W t 4 y f ! $.~ Z 4 o . + + : : : 4 4 : X o : 4 4 ",
"; o & 3 3 , < ; : < < < , , 3 3 & t 6.#.t.xXjXE.b.K.C.j.b.b.h.T M.M.k.^.P.^ 7 t 5 3 W -X_.y.q.w.q.#.3 + + + + + 6 6 3 + o + 6 4 ",
"> o $ & : : > &.>XQ.~ p : 2 o 5 J 8.J $ s.lXfXtX( V.J.j.h.k.T P L L k.I.*.w.: + + y ;XQ.Q.Q.w.w.$.7.B % % & + , 3 3 # X X $ 6 3 ",
"p , 3 & + ; U [.y._.eXq.6 J 5.9.5.z = & ).bXfXlX:X( S.V.h.T k.B.^.( m.*.w.Q.- < 3 ).y.>XlXlXnXxXhXQ o $ $ o ; > , 3 3 O o : > , ",
"&.&.4 3 + > &.Q 1 I $.y.a.8.H c c V N $ s.bXdXfXjX(.k.T.S.A.b.l.l.( P.y.&.>X-   ~ _.Q :X2X8XcX5XhXR.> : 7 Q $.I < > , . ; g Q p ",
"1 R s $ . 4 ! 6.r.-Xs.5.V b D G D V N % q.bXfXjXjXhX(.l.S.x.x.h.b.m.hX).S ).8 q.eX~ 1 :X2Xv.(.P.^ P.1 > ~ R R p Q p - > &.w.W ~ ",
"Q - 6 Z 5.i.d.u.>.F l l D D D b b V V * ! bXlXgXjX5XhX^.l.J.H.V.v.:XnX_.$ H J qXZX#.R (.Y ( !.dXI.5X*.8 Q.>XzX<Xg ; $.Q.E p i eX",
"kX6.r.i.>.H D c D D D D G c G G D C V k N zXlXjXcXcXjXxX(.k.M.m.,XxXnX`.@ c z 5 5.6.q.bXjXlX(.(.8X8XE.R ,X5X5X,XI - yX_.w.tX,XNX",
"t.! J c b b b n G G D D D l F H V V V N & eXbXdXjXxXNXNXvXy.*.,XBXxXlXy.@ F F c z C Z q.tXNX(.v.1X1X^.&.(.~.~.M.m.L dX4X:X(.:X4X",
"@ * z c G G n b n n D D D V c V N C C N * '.BXxXbXbXeX'.y.s.i.r.qXMXbXs.# F n n n c C 3 Z `.,X/.Z.|.E.P.cXoX1X8X:X^ fX!.I.U./.3X",
"k z c c c b n G b b c V D c c V V V V V = r.BXkX<Xy.! J a.'.d.f.! r.MXf.% c c c c C B B z 6 E !.2X~.^ K :X3X2XE.^ K ].!.4X3X7X1X",
"k z c c F c b G F G V c c D C V z l l N & #.yX>X_.zXeX6.i.CXZXVXaXwXZXZXpXaXaXaXaXwXJ F G G x 6 $.P.8 - %.N.*.eX0.v 1.].M.D.oX|.",
"l k c c c n c F C F C c c C V V z z N N = S mXNXfXtXbX).r.DXKXKXKXJXJXJXKXKXKXKXKXZXJ F G n G C 5 ! s r ).).zXsXB z v `.*.N.B.h.",
"V z C c c n c c C C c z l V z z z V z z 5 y eXxXnXfXnXrXr.DXKXKXKXJXJXJXKXKXJXKXKXZXJ V G b c V V N ! sXmXvXSXy.. 9 o 6 d >X*.Y ",
"k z c c c c C V C V c c z z V z k N z N N 3 -XtXnXlXlXyXa.DXKXKXKXJXHXHXHXHXJXJXKXZXJ V b D V C C 5 S -X-XqXMXS $ & X . 4 $.R.8X",
"* * z z z c c c C C z z z z z N z z k k N & -X<XlXlXlXyX'.FXKXKXKXDXSXwXd.f.f.f.f.a.C c c b c c z = B 5.! vX'.@ * = % X ).q.d W.",
"z * z V z z c z V V c z k k c V V z z z N X d.kXtXnXbX'.0XGXKXKXJXSXMX9.* k 5 z * k z V V l z z V z z 8.<.p.<.H c * . #.mXt.%.N.",
"C 5 * z * k C z V c c c z l c V z z N N k # r.bX[.nXbXe.qXFXKXKXJXZXMX6.k z N N z k N V z = z z N z z >.8.>.<.p.p.5.4 yXyX@.w.5X",
"z C * * z * z z C c c c z z z V V z N z k 5 ! BX[.bXbX6.'.FXKXKXJXSXmXJ k z = z k = N N = = k z c z c H 8.>.>.>.8.0.~ mXW.I >X5X",
"& N N $ & $ 5 z V z c c c z z z z z N V N 5 J MX>XkXvX6.'.FXKXKXJXDXZX-Xg.g.g.g.9.N N N * = z V N z z c i.>.>.>.,.! Q.hX;.=.<XE.",
"5 $ t 5 & & = N z z V N z z z k z z z z N z B MXdXdXvXr.qXGXKXKXKXKXKXKXKXKXKXKXsXB B N * = z k z z z C i.<.,.,.,.R W.*X=.Q %.*X",
"N 5 * = & & & = z z V N z z z k z N z z z = y sXbX,XyXr.qXFXKXKXKXKXKXKXKXKXKXKXsXB N 5 * 5 z z z k z z >.8.,.,.6.R %.R.%.%.=.W.",
"k k z & & & X = = V N z z N N z z N k z N N 5 yXnX,X>X6.qXFXKXKXKXKXKXKXKXKXKXKXsXt #.J $ z z C z * N * x i.,.,.0.R U %.=XF.n.n.",
"N z = = $ = # = = k z N z z z z N z N z V N $ qXNX>X`.8.g.FXKXKXKXHXsXwXuXuXwXuXd.Z ! B & N N C = = N = * 6.0.~ ~ 8 Q I _.<X~.n.",
"C N = = & $ # & = N N z = z 5 z N z c z V N & -XBX,XqXr.0XFXKXKXKXFX5.# z z = N N $ # B & N N V k z = = x e.~ ~ I $.&.7 > w.N.N.",
"= * = N N * # & 5 z N z 5 z z z z z V z N N = y.BXtXrXr.g.FXKXKXKXSXJ * N k z N N $ & u.t 5 N z * % z N 2 ,.~ ~ Q Q R #.  4 p %.",
"z = * * = 5 $ & = 5 z z = = 5 z z z z z N V * q.BXdXqXi.0XFXKXKXKXZXB = k k N = = = # J S $ N = = N N 5 x 6 ~ W W R $.W o $ . < ",
"z z z 5 & $ & & = 5 z z * = z z z 5 z z = c * 6.BXlX;Xi.0XFXKXKXKXsX= = k k = % * = & t J = N = = N = = B 6 ~ W s Q Q W 3 $ + . ",
"V z * N 5 $ $ & = 5 z z z z z z 5 * z z k c 5 #.BXbX'.9.0XFXKXKXKXZXuXaXuXuXuXwXwXwX5.* J B z * = N N m = * ! ! 7 p U 0.B 3 y + ",
"N C z C = $ o # & 5 = = = z z = z = N z m c * J MXNX-X9.9XFXKXKXKXKXKXKXKXKXKXKXKXHXa.& N J * # % z N N B N N y s Q W i 6 3 e + ",
"z z * * $ & $ $ = = = = = 5 = = = = * z k z z S mXAX-X9.d.DXKXKXKXKXKXKXKXKXKXKXKXHXu.& = J 5 $ = = z k = * $ 5 B #.Z W W e e e ",
"* * = = = & X $ & & = = = N * = = = = N N C z S yXtX'.r.d.FXKXKXKXKXKXKXKXKXKXKXKXHXr.# = N J = = z C N N N N N 3 B Z $.Z : e e ",
"5 = 5 = 5 & X & & & 0 = = = % * = z = z N z 5 S tX[.).i.p.uXaXiXiXg.g.g.g.g.g.g.g.f.J & = $ S ! * k z z N N N = $ 5 y W S 3 u e ",
"z z z 5 5 & & $ & & & & 0 = 0 t 5 z = = N z 5 S eXtXe.i.i.i.a.p.9.% * = = * * = & # & = & # # J H k V N N * = k N z J #.6.y e e ",
"C C N = 5 $ $ $ & & & & & = t = = = = * N 5 5 Z rXyX6.9.p.i.i.s.9.* = 0 = = = = 0 & 5 5 & # # $ J C * N N N B N N H :.:.! e + + "
};
