/* XPM */
static char *c521ce8426be4aa2e89431ae8025c619dXG8nInKm7vAcOpo[] = {
/* columns rows colors chars-per-pixel */
"64 64 150 2 ",
"   c #030102",
".  c #090506",
"X  c #0A0609",
"o  c #0D090C",
"O  c #110C0E",
"+  c #0F0D11",
"@  c #130E12",
"#  c #1E0F1C",
"$  c #151214",
"%  c #191416",
"&  c #15161A",
"*  c #1A1619",
"=  c #1C1A1C",
"-  c #22151F",
";  c #211C1E",
":  c #1E1D21",
">  c #221321",
",  c #231E22",
"<  c #241A28",
"1  c #2A1D2A",
"2  c #1F2024",
"3  c #242325",
"4  c #292426",
"5  c #262629",
"6  c #29262A",
"7  c #27282B",
"8  c #2B2A2C",
"9  c #302D2F",
"0  c #2D2D31",
"q  c #322F33",
"w  c #2F3132",
"e  c #343536",
"r  c #363536",
"t  c #363537",
"y  c #323335",
"u  c #393237",
"i  c #363138",
"p  c #343338",
"a  c #343638",
"s  c #353738",
"d  c #363638",
"f  c #363639",
"g  c #3A343E",
"h  c #39353A",
"j  c #37383A",
"k  c #37393A",
"l  c #37393B",
"z  c #373D3C",
"x  c #373D3D",
"c  c #373A3B",
"v  c #39383B",
"b  c #393A3B",
"n  c #383A3C",
"m  c #3A3A3E",
"M  c #3A3B3F",
"N  c #3C3B3E",
"B  c #383D3D",
"V  c #393D3D",
"C  c #383E3D",
"Z  c #393E3D",
"A  c #393D3E",
"S  c #393C3F",
"D  c #3B3C3E",
"F  c #3A3D3E",
"G  c #3B3D3E",
"H  c #3A3C3F",
"J  c #383E3E",
"K  c #393E3E",
"L  c #393F3E",
"P  c #393F3F",
"I  c #3A3E3E",
"U  c #3B3E3E",
"Y  c #3A3E3F",
"T  c #3B3E3F",
"R  c #3A3F3F",
"E  c #3C3E3F",
"W  c #3A3F3F",
"Q  c #42393F",
"!  c #39403E",
"~  c #39403F",
"^  c #3A403F",
"/  c #3A403F",
"(  c #3B3D40",
")  c #3B3E40",
"_  c #3B3F40",
"`  c #3A3F41",
"'  c #3D3E40",
"]  c #3D3F40",
"[  c #3C3E41",
"{  c #3C3F41",
"}  c #3E3F41",
"|  c #3F3C46",
" . c #3C3E40",
".. c #502B4B",
"X. c #403C45",
"o. c #413E43",
"O. c #3A4040",
"+. c #3B4040",
"@. c #3A4140",
"#. c #3B4140",
"$. c #3B4041",
"%. c #3B4141",
"&. c #3B4042",
"*. c #3C4141",
"=. c #3D4141",
"-. c #3C4241",
";. c #3D4142",
":. c #3D4143",
">. c #3E4042",
",. c #3E4142",
"<. c #3E4143",
"1. c #3C4242",
"2. c #3D4242",
"3. c #3C4342",
"4. c #3D4342",
"5. c #3D4343",
"6. c #3E4242",
"7. c #3F4242",
"8. c #3E4243",
"9. c #3F4243",
"0. c #3E4343",
"q. c #3F4343",
"w. c #3E4443",
"e. c #3F4443",
"r. c #3F4244",
"t. c #3E4344",
"y. c #3E4444",
"u. c #3F4444",
"i. c #3F4544",
"p. c #3F4445",
"a. c #3F4545",
"s. c #3F4546",
"d. c #3D4242",
"f. c #414044",
"g. c #414346",
"h. c #424347",
"j. c #404444",
"k. c #404544",
"l. c #404445",
"z. c #414445",
"x. c #404545",
"c. c #414446",
"v. c #414547",
"b. c #424646",
"n. c #404545",
"m. c #414348",
"M. c #434748",
"N. c #444A4A",
"B. c #454A4A",
"V. c #45494A",
/* pixels */
"= 0   = } w.Z Z } M p q 0 6 8 8 q 8 p y p v ` &.Z Z Z Z ` ` ` ` Z Z Z Z Z Z Z Z Z Z Z Z Z &.y @ -.Z Z Z Z Z Z Z Z Z ` ` ` ` Z Z ",
"& s.0 . X 8 -.-.Z Z &.-.-.-.-.-.-.-.&.&.&.~ Z Z Z Z Z Z ` ` ` ` Z Z Z Z Z Z &.` &.y 4 -.Z &.e O Z Z Z Z Z Z Z Z Z Z ` ` ` ` Z Z ",
"$ ` -.` 3 X + 8 -.&.Z Z Z Z Z Z Z Z Z Z Z Z ` ` Z Z Z Z Z Z Z Z ` ` ` Z Z &.l s s.; 3 w.Z Z Z O e &.Z Z ` ` ` ` Z Z Z Z Z Z Z Z ",
"+ &.Z Z s.} 6 O @ s s.Z Z Z Z Z Z Z Z Z Z Z ` ` Z Z Z Z Z Z Z Z ` ` ` ` Z w.3 8 z.O y -.Z Z -.@ 7 -.Z Z ` ` ` ` Z Z Z Z Z Z Z Z ",
"$ &.Z Z Z Z w.z.=   3 -.-.Z Z Z Z Z Z Z Z Z ` ` Z Z Z Z Z Z Z Z Z Z Z Z Z Z % Z e @ } Z Z Z s.= * s.Z ` ` Z Z Z ` ` ` Z Z Z Z ` ",
"& :.Z Z Z Z Z Z -.0 @ X 8 z.&.Z Z Z Z ` Z Z ` ` Z Z Z Z Z Z ` Z Z Z Z Z -.8 @ M.5 * s.Z Z Z s.3 $ :.Z ` ` Z Z Z ` ` Z Z Z Z Z ` ",
"3 -.Z Z Z Z Z Z Z -.m.6 . $ l :.Z Z ` Z Z Z Z ` Z Z Z Z ` ` ` ` Z Z Z Z s.= * V.* = s.Z Z Z -.8 o ` Z Z Z Z Z Z ` ` Z Z Z Z ` ` ",
"2 -.Z Z Z Z Z Z Z Z Z w.| < . 5 z.Z Z ` Z Z Z Z ` ` Z Z Z ` ` ` Z Z Z Z s.$ 3 V.$ 3 s.Z Z Z Z E O e &.Z Z Z Z Z ` Z Z Z Z Z ` ` ",
"3 -.Z Z Z Z Z Z ` Z ` Z ~ z.g X * -.-.Z Z Z Z Z ` ` Z Z Z Z ` ` Z Z Z Z -.$ 3 } = M ` Z Z Z Z -.$ 5 -.Z ` ` ` ` Z Z Z Z Z Z Z ` ",
"5 -.Z Z Z Z Z Z ` ` Z ` Z x -.X.@ . 0 s.Z Z Z Z ` ` Z Z Z Z ` ` Z Z Z &.z.@     X N &.Z Z Z Z s., % s.Z Z ` ` ` Z Z Z Z Z Z ` ` ",
"5 -.Z Z Z Z Z Z Z Z Z Z Z ` Z ~ g.6 . : :.~ Z Z Z Z Z Z Z Z ` ` Z Z Z y 8 X 5 q @ @ -.Z Z Z Z -.8 O -.Z Z ` Z Z Z Z Z Z Z Z Z Z ",
"5 -.Z ` Z Z Z ` Z Z Z Z ` Z ` Z Z s.M o + ` -.Z ` Z Z Z Z Z ` ` Z Z -.%   q z.-.g.@ * -.Z Z Z &.e . l &.Z Z Z Z ` Z Z Z Z Z Z Z ",
"7 -.Z Z Z Z ` ` Z Z ` Z Z Z Z ` Z Z ~ g.:   y -.Z Z Z Z Z Z Z Z Z Z -.$ $ z.x Z ~ } o e &.Z Z Z -.O 5 -.Z Z Z Z ` ` Z Z Z Z Z Z ",
"8 -.Z Z Z Z ` ` Z Z ` ` Z Z Z Z Z Z Z Z z.5 . y -.Z Z Z Z Z Z Z Z Z -.@ 8 -.Z Z Z s.3 3 s.Z Z Z -.5 O -.Z Z Z Z ` ` Z Z Z Z ` ` ",
"0 -.Z Z Z ` ` ` Z ` ` ` Z Z Z Z Z Z Z Z Z z.6   8 s.Z ` Z ` Z Z Z Z -.$ y -.Z Z Z &.s , -.Z Z Z &.v X e &.Z Z Z ` Z Z Z Z ` ` ` ",
"0 -.Z Z Z Z ` ` Z ` ` ` Z Z Z Z Z Z Z Z Z Z s.p . 0 s.Z ` ` ` Z Z Z -.* w -.Z Z Z Z ` 6 Z ` Z Z Z -.O 5 -.Z Z Z ` ` Z Z Z ` Z Z ",
"0 -.Z Z ` ` ` ` ` ` ` Z Z Z ` ` Z Z Z ` Z ` Z s.q   5 s.Z Z Z Z ` Z s., 3 s.Z Z Z Z Z , Z Z Z Z Z s., * s.Z Z Z Z Z Z Z Z Z Z -.",
"0 -.Z Z ` ` ` ` ` ` ` Z Z Z Z ` Z Z ` ` ` Z Z Z s.4   5 -.Z Z Z Z Z &.y @ -.Z Z Z Z Z = Z Z Z Z Z -.y o Z Z Z Z Z Z Z Z Z -.-.5 ",
"a &.Z Z Z Z Z Z ` ` Z Z Z Z ` ` ` ` ` ` ` ` Z Z Z z.4   8 s.Z Z Z Z Z -.* q w.Z Z -.e $ -.Z Z ` Z Z } o 8 -.Z Z Z Z Z Z s.y X . ",
"n &.Z Z Z Z Z Z Z Z Z Z Z Z ` ` Z ` ` ` ` ` Z Z Z Z s.3   y -.Z Z Z Z &.e - o.-.&.M o 5 -.Z ` ` Z Z s.; * s.Z Z Z Z Z s.3   * Z ",
"n Z Z Z Z Z Z Z Z Z Z Z Z Z Z ` Z Z ` ` ` ` Z Z Z Z Z z.;   M &.Z Z Z Z &.u ..0 ( @ 8 -.Z Z ` ` Z Z -.9 . Z Z Z Z Z s.= . e s.Z ",
"` Z Z Z Z Z Z Z Z Z Z Z Z Z Z Z Z Z Z Z ` ` Z Z Z Z Z Z z.% o } ~ Z Z Z Z -.( # > s s.Z Z Z Z Z Z Z Z -.$ = s.Z Z :.% o M -.Z Z ",
"` Z Z Z Z Z ` ` ` ` Z Z Z Z Z Z Z Z Z Z ` Z Z Z Z Z Z Z Z } O o -.Z Z Z ` Z ~ -.Z &.Z Z Z Z Z Z Z Z Z &.s . e &.` $ & -.&.Z Z Z ",
"` Z Z Z Z ` ` ` ` Z Z Z Z Z Z Z Z Z Z Z Z Z Z Z Z Z Z Z Z &.N . * :.Z Z Z ` Z Z Z Z Z Z Z Z Z Z Z Z Z Z z.* & V.$ % z.Z Z ` Z ` ",
"&.Z Z Z Z Z Z Z Z Z Z Z Z Z ` ` Z Z ` ` Z Z Z Z Z Z ` Z Z Z &.N . : s.Z Z Z Z Z Z ` ` ` Z Z Z Z Z Z Z Z &.h o & % z.Z Z Z Z ` ` ",
"` Z Z Z Z Z ` Z Z ` Z Z Z Z ` ` Z Z ` ` Z Z Z Z Z Z ` ` Z Z Z -.e   0 -.Z Z Z Z ` ` ` ` Z Z Z Z Z Z ` ` Z s.3   Z Z Z Z Z ` ` Z ",
"Z ` Z Z ` ` ` ` ` ` ` Z Z Z ` ` Z Z ` ` Z Z Z Z Z ` Z ` Z Z Z Z s.; O :.Z Z Z Z Z Z ` ` Z Z ` Z Z Z Z Z Z -.@ 7 -.Z Z Z Z Z Z Z ",
"` ` Z Z ` ` ` ` ` ` ` Z Z Z ` ` Z Z ` Z Z Z Z ~ Z Z Z ` Z Z Z Z Z E X 5 -.Z Z Z Z Z Z Z Z Z ` ` Z Z Z Z z.= * z.Z Z Z ` Z Z Z Z ",
"Z Z ` ` Z Z Z Z Z Z Z Z Z Z Z Z Z Z Z Z -.z.-.n -.z.&.Z Z Z Z Z Z -.8   l &.Z Z Z Z Z Z Z ` Z ` Z Z Z -.7 % -.Z Z Z ` ` Z ` ` ` ",
"Z Z Z ` Z Z Z Z Z Z Z Z &.s.s.-.Z Z Z -.y = o   X & e -.Z Z Z Z Z Z z.= @ :.Z ` Z Z Z Z ` ` Z Z Z Z &.M o v &.Z ` ` ` ` Z Z ` ` ",
"Z Z ` ` Z Z Z Z Z Z Z &.y $ 3 y ` -.} $   . % 5 3 - X 8 -.Z Z Z Z Z Z } o 5 :.Z ` ` Z Z Z Z Z Z Z Z :.$ 5 s.Z Z Z Z Z Z Z Z ` Z ",
"Z Z ` ` ` Z Z Z Z Z Z ~ l ; o   o 0 = X q E :.-.-.V.6 @ g.Z ` ` Z Z Z -.8 . Z ` Z Z Z ` Z Z Z Z Z w.5 $ -.Z Z Z Z Z Z Z Z Z ` Z ",
"Z Z Z Z ` ` Z Z Z Z ` Z &.s.g.q .     8 z.Z Z Z Z Z l @ Z ` Z ` ` Z Z Z } o 3 s.Z Z Z Z Z Z Z Z ~ M o s &.Z Z Z Z ` ` ` Z Z Z Z ",
"Z Z ` ` ` ` Z Z Z Z Z Z Z x x -.v o   s Z Z Z Z Z Z :.- 0 -.Z ` ` ` Z Z -.p . l &.Z Z Z Z Z Z Z z.$ 3 s.Z Z Z Z ` ` Z ` Z Z Z Z ",
"Z ` ` ` ` ` Z Z Z Z -.s.s.s.s.-.N.= = z.Z Z Z Z Z Z &.( q &.Z Z Z Z Z Z Z :.% = s.Z Z Z Z Z Z s.; = s.Z Z Z Z Z Z Z ` Z Z Z Z Z ",
"Z ` ` ` ` ` Z Z Z -.3 o * = = 3 s o 6 -.Z Z Z Z Z Z Z Z q Z Z Z Z Z Z Z Z &.e . s &.Z Z ` Z :.5 o -.Z Z Z Z Z Z Z Z Z Z Z Z Z ` ",
"Z Z ` ` ` ` Z Z Z &.9 = o . .       8 -.Z Z Z Z Z Z Z X.1 x Z Z Z Z Z Z Z Z :.@ * s.Z Z Z Z Z @ s &.Z ` Z ` ` ` Z Z ` Z Z Z Z E ",
"Z Z ` Z ` ` Z Z Z Z -.s.-.-.} v 4 . l &.Z Z Z Z Z Z &.s O Z Z Z ` Z Z Z Z Z :.5 o -.Z Z Z -.6 3 s.Z Z Z ` ` ` Z Z Z ` ` Z Z Z v ",
"Z Z Z Z ` Z Z Z Z Z Z Z Z Z Z &.-.o w -.Z Z Z Z Z Z -.y , -.Z Z ` ` ` ` Z Z &.v   w -.Z Z ` % l &.Z Z Z ` ` Z Z Z ` ` ` Z Z ~ l ",
"Z Z Z Z Z Z Z Z Z Z Z Z Z Z Z Z -.o = :.Z ` Z Z Z Z :., y -.Z Z ` ` ` Z Z Z Z s.= $ s.x s.3 = s.Z Z Z Z Z Z Z Z Z Z ` ` Z Z &.e ",
"Z Z Z Z ` ` ` Z Z Z ` ` ` Z Z Z -.$   Z Z Z Z Z Z Z Z $ M Z Z ` Z Z Z Z ` Z Z &.e   y -.s $ Z Z Z Z Z Z ` ` Z Z ` ` Z Z Z Z &.q ",
"Z Z Z Z ` ` ` Z Z Z ` ` ` ` Z Z -.5   7 z.Z Z Z Z -.8 * -.Z Z ` ` Z Z Z ` ` ` Z -.$ = V.$ 8 -.Z Z Z Z Z ` ` Z Z ` Z Z Z Z Z &.s ",
"` ` Z Z ` Z Z Z Z Z Z ` Z Z Z Z Z z.8 . 5 n Z Z Z z.= 7 -.Z ` ` ` ` Z Z Z Z ` Z -.8 O , & :.Z Z Z Z Z Z ` Z Z Z Z Z Z Z Z Z ~ M ",
"` ` Z Z Z Z Z Z Z Z Z ` Z Z Z Z -.M $     e ~ Z s.0 o M Z Z ` Z ` ` Z Z Z Z Z Z Z -.O   v &.Z Z Z Z Z ` ` Z Z Z ` ` Z Z Z Z &.h ",
"` ` Z Z Z Z Z Z Z Z Z Z Z ` Z -.y . * 7 X ` z.Z ,   5 -.Z Z Z Z ` ` Z Z Z Z Z Z Z z.* @ z.Z Z Z ` ` ` ` Z ` ` ` ` Z Z Z Z Z &.q ",
"` ` Z Z Z Z Z Z Z Z Z Z Z Z -.e . 8 z.s.= + $   O s -.Z Z Z Z Z ` ` Z Z Z Z Z Z Z } O 3 -.Z Z Z ` Z ` ` Z ` ` ` ` Z Z Z Z Z &.h ",
"Z Z Z Z ` Z ` ` Z Z Z Z Z &.l . 3 z.Z Z -.7 , y -.&.Z Z Z Z Z ` Z Z Z Z Z Z Z Z -.8 , z.Z Z Z Z Z Z Z Z Z Z ` ` Z Z Z Z Z Z ~ N ",
"Z Z Z Z ` ` ` ` ` ` Z Z Z -.$ 5 z.Z Z Z Z -.s.-.Z Z Z Z Z Z Z ` Z Z Z Z Z Z Z Z } % l Z Z Z Z Z Z Z Z Z Z Z ` Z Z Z Z Z Z Z &.s ",
"Z Z Z Z Z Z Z Z Z Z Z Z :.5 $ s.Z Z Z Z Z Z Z Z Z Z Z Z Z Z ` ` Z Z Z Z Z Z Z -.8 ; w.Z Z Z ` ` ` ` Z Z Z Z Z ` Z Z Z Z Z Z &.q ",
"` Z Z Z Z Z Z Z Z Z Z Z -.@ y -.Z Z Z Z ` ` ` ` ` ` Z Z Z Z ` ` ` Z Z Z Z Z Z -.* 0 -.Z Z Z ` Z ` ` Z Z Z Z ` ` ` ` Z Z Z Z &.u ",
"` ` ` Z ` ` Z Z Z Z Z -.w * :.Z Z Z Z Z Z Z ` ` ` ` ` Z Z Z Z ` ` ` ` Z ` Z Z M % Z Z Z Z Z Z Z ` Z Z Z Z Z ` ` ` ` ` Z Z Z ~ o.",
"` ` ` ` ` ` ` ` Z Z Z -.= 8 -.Z Z Z Z Z Z Z Z ` ` ` ` Z Z Z Z ` ` ` ` ` Z Z :.7 = s.Z Z Z Z Z Z ` Z Z Z Z Z ` ` ` ` ` Z Z Z ` M ",
"Z Z ` ` ` Z Z Z Z Z &.y & -.Z Z Z Z Z Z Z Z Z Z Z Z Z Z Z Z Z Z Z Z Z Z Z Z -., 8 -.Z Z Z Z Z ` Z Z Z Z Z Z Z Z Z Z Z Z Z Z Z Z ",
"Z ` ` ` ` Z Z Z Z Z s.3 5 w.Z Z Z Z Z Z Z Z Z Z Z Z Z Z ` Z Z Z Z Z Z Z Z Z M * ` ` Z ` Z Z Z ` Z Z Z Z Z Z Z Z Z Z Z Z Z Z Z Z ",
"Z Z ` ` Z Z Z Z Z Z Z $ s &.Z Z Z Z ` Z ` ` Z Z Z Z ` ` ` ` Z Z ` ` Z Z Z -.7 = :.Z Z Z Z Z ` ` Z Z ` Z ` ` Z Z Z Z ` ` ` ` Z Z ",
"Z Z ` Z Z Z Z Z Z -.y * :.Z Z Z Z Z ` ` ` ` ` ` Z Z Z ` ` ` Z Z ` ` Z Z Z -.& 0 -.Z Z Z Z Z ` ` Z Z ` ` ` ` ` Z Z Z Z ` ` ` Z Z ",
"Z Z Z Z Z Z Z Z Z s.3 : s.Z Z Z Z ` ` ` Z Z Z Z Z Z Z Z ` ` Z Z ` ` Z Z &.e $ -.Z Z Z Z Z Z Z ` Z ` ` ` Z Z Z Z Z Z Z Z ` ` ` Z ",
"Z Z Z Z ` ` ` Z Z -.% y -.Z Z Z Z ` ` ` Z Z Z Z Z Z ` ` ` ` Z Z ` ` Z Z -.5 ; s.Z Z Z Z Z Z Z ` Z ` ` ` Z Z Z Z Z Z ` Z ` ` Z Z ",
"` ` ` ` Z ` Z Z &.l $ ` Z Z ` ` Z Z ` Z ` Z ` ` Z ` ` ` ` ` Z Z Z Z Z Z -.% w -.Z Z Z Z Z Z Z Z Z Z ` ` ` ` ` ` ` ` ` ` ` ` Z Z ",
"` ` ` ` Z Z Z Z -.y = :.Z ` Z ` Z Z Z Z ` ` ` ` Z ` ` ` ` ` Z Z Z Z Z &.e * -.Z Z Z Z Z Z Z Z Z Z Z Z Z ` ` ` ` Z ` ` ` ` Z Z Z ",
"Z Z Z ` ` ` Z Z -.5 5 -.Z Z Z ` Z Z ` ` Z Z Z ` Z Z ` ` ` ` Z Z Z Z Z s.3 5 s.Z ` ` Z Z Z Z ` Z Z Z ` ` ` Z Z Z Z Z ` ` ` ` Z Z ",
"Z Z Z Z ` ` Z Z w., 0 -.Z Z Z Z Z Z ` ` Z Z Z Z Z Z ` Z ` ` Z Z Z Z Z :.3 y -.Z ` Z Z Z Z Z ` ` Z Z ` ` Z Z Z Z Z Z Z Z ` ` Z Z ",
"Z Z Z Z ` Z Z Z -.3 0 -.Z Z Z Z Z Z ` ` Z Z Z Z Z Z Z Z ` Z Z Z ` Z Z -.6 s &.Z Z ` Z Z Z ` ` ` Z Z Z ` Z Z Z Z Z Z Z Z ` Z Z Z ",
"Z Z Z Z ` ` Z Z -.3 0 -.Z Z Z Z Z Z ` ` Z Z Z Z Z Z Z Z Z Z Z Z Z Z Z -., l -.Z -.Z Z Z Z ` ` ` Z Z ` ` Z Z Z Z Z Z Z Z ` Z Z Z "
};
