/* XPM */
static char *_042699b39144b1c8ef21c2083d7d133K0DgD1stVRpEPdU5[] = {
/* columns rows colors chars-per-pixel */
"64 64 205 2 ",
"   c None",
".  c #000000",
"X  c #090406",
"o  c #0A0509",
"O  c #0D0A0C",
"+  c #070208",
"@  c #110D0C",
"#  c #10050B",
"$  c #0F120C",
"%  c #11170C",
"&  c #0E0D11",
"*  c #130B12",
"=  c #0E1116",
"-  c #131313",
";  c #191215",
":  c #14161B",
">  c #1A191C",
",  c #181918",
"<  c #251B1E",
"1  c #24171A",
"2  c #17280D",
"3  c #1C251A",
"4  c #1B2A15",
"5  c #1B3110",
"6  c #1C3B11",
"7  c #202A1C",
"8  c #22341D",
"9  c #233A1D",
"0  c #181C23",
"q  c #2B1C21",
"w  c #241E22",
"e  c #331B25",
"r  c #1E232A",
"t  c #1D2021",
"y  c #2C2126",
"u  c #2D2329",
"i  c #282827",
"p  c #32252A",
"a  c #35262B",
"s  c #293923",
"d  c #232933",
"f  c #2A2E34",
"g  c #3A2C32",
"h  c #372F32",
"j  c #2D333D",
"k  c #3C3235",
"l  c #3C353B",
"z  c #43333C",
"x  c #483D3E",
"c  c #1E5015",
"v  c #234917",
"b  c #265A19",
"n  c #1D690E",
"m  c #1C650F",
"M  c #1F780E",
"N  c #1E6311",
"B  c #266919",
"V  c #247414",
"C  c #267719",
"Z  c #307B1E",
"A  c #2C4B29",
"S  c #30422E",
"D  c #2B5923",
"F  c #355F2C",
"G  c #354C36",
"H  c #2E6A28",
"J  c #326926",
"K  c #386729",
"L  c #2E7B21",
"P  c #377825",
"I  c #3C7432",
"U  c #457936",
"Y  c #2E3841",
"T  c #353B43",
"R  c #3F3F4E",
"E  c #4A3B44",
"W  c #523E4A",
"Q  c #38464A",
"!  c #3C4554",
"~  c #48464B",
"^  c #57474C",
"/  c #4B4E55",
"(  c #5A4B55",
")  c #4D525A",
"_  c #485558",
"`  c #565558",
"'  c #6E5F5F",
"]  c #645659",
"[  c #4A7D42",
"{  c #527C4A",
"}  c #556150",
"|  c #6E615F",
" . c #65725A",
".. c #575A64",
"X. c #655964",
"o. c #755F63",
"O. c #526866",
"+. c #547E60",
"@. c #5A6670",
"#. c #76676D",
"$. c #7F706F",
"%. c #746975",
"&. c #6D737D",
"*. c #77757B",
"=. c #686C72",
"-. c #847976",
";. c #1E890C",
":. c #1F9C0B",
">. c #248E15",
",. c #268517",
"<. c #259314",
"1. c #299915",
"2. c #249715",
"3. c #2B8A15",
"4. c #1FA60B",
"5. c #21A50D",
"6. c #22AB0E",
"7. c #28AA0E",
"8. c #20B60B",
"9. c #22BA0C",
"0. c #2AA315",
"q. c #28A817",
"w. c #31AD19",
"e. c #29B916",
"r. c #32B31D",
"t. c #2E8120",
"y. c #398C2C",
"u. c #2F9E21",
"i. c #359E24",
"p. c #3A8132",
"a. c #34AB22",
"s. c #35A82A",
"d. c #33BA24",
"f. c #38BE34",
"g. c #3DB43B",
"h. c #2FB824",
"j. c #44873B",
"k. c #469436",
"l. c #41AD37",
"z. c #1FD106",
"x. c #22C50A",
"c. c #24CB0C",
"v. c #21D607",
"b. c #21D906",
"n. c #24DB0B",
"m. c #25D50C",
"M. c #29C315",
"N. c #31C81F",
"B. c #2BD115",
"V. c #2CDC17",
"C. c #30D21D",
"Z. c #1FE404",
"A. c #1EEC03",
"S. c #1EF303",
"D. c #1DFF00",
"F. c #20E306",
"G. c #20EB06",
"H. c #24E50A",
"J. c #23EB0B",
"K. c #20F307",
"L. c #20F806",
"P. c #22F30A",
"I. c #23F809",
"U. c #27E413",
"Y. c #28E515",
"T. c #2FC520",
"R. c #32C322",
"E. c #36CA26",
"W. c #2ED622",
"Q. c #37C334",
"!. c #49D338",
"~. c #4EC73D",
"^. c #498942",
"/. c #558A4A",
"(. c #4E9744",
"). c #4A9348",
"_. c #529857",
"`. c #519248",
"'. c #6C905A",
"]. c #4AAC45",
"[. c #52A548",
"{. c #46B846",
"}. c #56A955",
"|. c #5EBB56",
" X c #57B446",
".X c #61B05C",
"XX c #5A8F64",
"oX c #798B6B",
"OX c #629D70",
"+X c #74927E",
"@X c #689068",
"#X c #66A365",
"$X c #55C144",
"%X c #7C7A84",
"&X c #867F86",
"*X c #7D8289",
"=X c #85828C",
"-X c #928484",
";X c #9B8F8E",
":X c #94939A",
">X c #8A8C8E",
",X c #A6A6AB",
"<X c #BEB2AF",
"1X c #B2ADB3",
"2X c #AEA8B2",
/* pixels */
"                                                                                                                                ",
"                                                                                                                                ",
"         .p.[                                                                                                                   ",
"        y.S.G.c.9.4.;.V J K F } X.` k < q q p u y g W E 1 s k q e a z W X.#.    %.X.(                                           ",
"        a.D.D.D.D.D.D.S.A.A.A.0.> o X X X X X X . X X o v x.9.7.0.w.r.a.i.3.P P U j.k.K y q y < < a z                           ",
"        M.D.D.D.D.D.D.D.D.D.D.e.@ . . . . . . . . . . . b D.D.D.D.D.D.D.D.D.D.D.D.D.D.c.~ o . . X @ ; ; y ^ ^                   ",
"      oXB.D.D.D.D.D.D.D.D.D.D.0.O . . . . . . . . . . + J D.D.D.D.D.D.D.D.D.D.D.D.D.D.B.~ o . . . . . . . * y u p < x ] #.      ",
"      oXn.D.D.D.D.D.D.D.D.D.D.1.o . . . . . . . . . . + I D.D.D.D.D.D.D.D.D.D.D.D.D.D.B.E o . . . . . . . . . . . . . . k o.    ",
"      '.G.D.D.D.D.D.D.D.D.D.D.;.X . . . . . . . . . . + P D.D.D.D.D.D.D.D.D.D.D.D.D.D.E.E + . . . . . . . . . . . . . . ..>X    ",
"      /.S.D.D.D.D.D.D.D.D.D.D.M + . . . . . . . . . . + L D.D.D.D.D.D.D.D.D.D.D.D.D.D.E.z . . . . . . . . . . . . . . . *.      ",
"      (.S.D.D.D.D.D.D.D.D.D.D.N + . . . . . . . . . . + C D.D.D.D.D.D.D.D.D.D.D.D.D.D.!.z . . . . . . . . . . . . . . X %.      ",
"      k.D.D.D.D.D.D.D.D.D.D.S.v + . . . . . . . . . . + C D.D.D.D.D.D.D.D.D.D.D.D.D.D.!.z . . . . . . . . . . . . . . O #.      ",
"      y.D.D.D.D.D.D.D.D.D.D.A.6 . . . . . . . . . . . + C D.D.D.D.D.D.D.D.D.D.D.D.D.D.~.l . . . . . . . . . . . . . . - X.      ",
"      i.D.D.D.D.D.D.D.D.D.D.Z.5 . . . . . . . . . . . + C D.D.D.D.D.D.D.D.D.D.D.D.D.D.$Xg . . . . . . . . . . . . . . - ^       ",
"      s.D.D.D.D.D.D.D.D.D.D.Z.4 . . . . . . . . . . . + C D.D.D.D.D.D.D.D.D.D.D.D.D.D. Xy . . . . . . . . . . . . . . - ^       ",
"      d.D.D.D.D.D.D.D.D.D.D.b.4 . . . . . . . . . . . + V D.D.D.D.D.D.D.D.D.D.D.D.D.D.[.1 . . . . . . . . . . . . . . - ]       ",
"      R.D.D.D.D.D.D.D.D.D.D.x., . . . . . . . . . . . X ,.D.D.D.D.D.D.D.D.D.D.D.D.D.D.k.* . . . . . . . . . . . . . . ; o.      ",
"      B.D.D.D.D.D.D.D.D.D.D.e.; . . . . . . . . . . . X ,.D.D.D.D.D.D.D.D.D.D.D.D.D.D.y.# . . . . . . . . . . . . . . < #.      ",
"      U.D.D.D.D.D.D.D.D.D.D.7.; . . . . . . . . . . . X <.D.D.D.D.D.D.D.D.D.D.D.D.D.D.Z X . . . . . . . . . . . . . . w         ",
"      H.D.D.D.D.D.D.D.D.D.D.1.* . . . . . . . . . . . o 2.D.D.D.D.D.D.D.D.D.D.D.D.D.D.V X . . . . . . . . . . . . . . u         ",
"      J.D.D.D.D.D.D.D.D.D.D.t.* . . . . . . . . . . . o <.D.D.D.D.D.D.D.D.D.D.D.D.D.D.B + . . . . . . . . . . . . . . u         ",
"    ^.J.D.D.D.D.D.D.D.D.D.D.J * . . . . . . . . . . . + >.D.D.D.D.D.D.D.D.D.D.D.D.D.D.B + . . . . . . . . . . . . . . u         ",
"    (.S.D.D.D.D.D.D.D.D.D.D.b * . . . . . . . . . . . o <.D.D.D.D.D.D.D.D.D.D.D.D.D.D.b . . . . . . . . . . . . . . . p         ",
"    [.D.D.D.D.D.D.D.D.D.D.D.b * . . . . . . . . . . . o >.D.D.D.D.D.D.D.D.D.D.D.D.D.S.v . . . . . . . . . . . . . . . g         ",
"    ].D.D.D.D.D.D.D.D.D.D.D.D * . . . . . . . . . . . + ,.D.D.D.D.D.D.D.D.D.D.D.D.D.G.6 . . . . . . . . . . . . . . . k         ",
"    l.D.D.D.D.D.D.D.D.D.D.S.D * . . . . . . . . . . . + V D.D.D.D.D.D.D.D.D.D.D.D.D.G.5 . . . . . . . . . . . . . . . g         ",
"    h.D.D.D.D.D.D.D.D.D.D.S.A O . . . . . . . . . . . + B D.D.D.D.D.D.D.D.D.D.D.D.D.F.5 . . . . . . . . . . . . . . . p         ",
"    T.D.D.D.D.D.D.D.D.D.D.F.s o . . . . . . . . . . . + B D.D.D.D.D.D.D.D.D.D.D.D.D.F.5 . . . . . . . . . . . . . . . p         ",
"    R.D.D.D.D.D.D.D.D.D.D.v.i + . . . . . . . . . . . + b D.D.D.D.D.D.D.D.D.D.D.D.D.Z.5 . . . . . . . . . . . . . . . g         ",
"    R.D.D.D.D.D.D.D.D.D.D.b.7 . . . . . . . . . . . . . v S.D.D.D.D.D.D.D.D.D.D.D.D.F.2 . . . . . . . . . . . . . . . k         ",
"    E.D.D.D.D.D.D.D.D.D.D.F.4 . . . . . . . . . . . . . 9 H.D.D.D.D.D.D.D.D.D.D.D.D.b.2 . . . . . . . . . . . . . . . k         ",
"    C.D.D.D.D.D.D.D.D.D.D.F.8 . . . . . . . . . . . . . 3 n.D.D.D.D.D.D.D.D.D.D.D.D.v.% . . . . . . . . . . . . . . . k         ",
"    V.D.D.D.D.D.D.D.D.D.D.H.8 . . . . . . . . . . . . . 4 n.D.D.D.D.D.D.D.D.D.D.D.D.c.$ . . . . . . . . . . . . . . . k         ",
"  oXU.D.D.D.D.D.D.D.D.D.D.H.8 . . . . . . . . . . . . . 3 m.D.D.D.D.D.D.D.D.D.D.D.D.x.$ . . . . . . . . . . . . . . . k         ",
"  @XJ.D.D.D.D.D.D.D.D.D.D.H.8 . . . . . . . . . . . . . , c.D.D.D.D.D.D.D.D.D.D.D.D.x.@ . . . . . . . . . . . . . . . h         ",
"  #XP.D.D.D.D.D.D.D.D.D.D.H.s . . . . . . . . . . . . . - 9.D.D.D.D.D.D.D.D.D.D.D.D.8.o . . . . . . . . . . . . . . . a         ",
"  .XI.D.D.D.D.D.D.D.D.D.D.H.8 . . . . . . . . . . . . . $ 9.D.D.D.D.D.D.D.D.D.D.D.D.4.X . . . . . . . . . . . . . . . p         ",
"  [.L.D.D.D.D.D.D.D.D.D.D.n.7 . . . . . . . . . . . . . O 6.D.D.D.D.D.D.D.D.D.D.D.D.:.+ . . . . . . . . . . . . . . . u         ",
"  }.L.D.D.D.D.D.D.D.D.D.D.m.3 . . . . . . . . . . . . . o 5.D.D.D.D.D.D.D.D.D.D.D.D.:.+ . . . . . . . . . . . . . . . y -.      ",
"  |.S.D.D.D.D.D.D.D.D.D.D.c., . . . . . . . . . . . . . o 5.D.D.D.D.D.D.D.D.D.D.D.D.;.+ . . . . . . . . . . . . . . . w -X      ",
"  |.L.D.D.D.D.D.D.D.D.D.D.M., . . . . . . . . . . . . . o 5.D.D.D.D.D.D.D.D.D.D.D.D.;.+ . . . . . . . . . . . . . . . ; $.      ",
"  |.L.D.D.D.D.D.D.D.D.D.D.r.> . . . . . . . . . . . . . o 6.D.D.D.D.D.D.D.D.D.D.D.D.M + . . . . . . . . . . . . . . . - '       ",
"  }.L.D.D.D.D.D.D.D.D.D.D.e.> . . . . . . . . . . . . . o 6.D.D.D.D.D.D.D.D.D.D.D.D.n . . . . . . . . . . . . . . . . O '       ",
"  ).K.D.D.D.D.D.D.D.D.D.D.e.- . . . . . . . . . . . . . O 8.D.D.D.D.D.D.D.D.D.D.D.D.m . . . . . . . . . . . . . . . . O |       ",
"  j.K.D.D.D.D.D.D.D.D.D.D.M.- . . . . . . . . . . . . . O 8.D.D.D.D.D.D.D.D.D.D.D.D.N . . . . . . . . . . . . . . . . o ]       ",
"  ^.K.D.D.D.D.D.D.D.D.D.D.M.- . . . . . . . . . . . . . $ 9.D.D.D.D.D.D.D.D.D.D.D.D.m . . . . . . . . . . . . . . . . X (       ",
"  `.K.D.D.D.D.D.D.D.D.D.D.e.- . . . . . . . . . . . . . % x.D.D.D.D.D.D.D.D.D.D.D.D.n + . . . . . . . . . . . . . . . X ^       ",
"  ).K.D.D.D.D.D.D.D.D.D.D.r.- . . . . . . . . . . . . . - x.D.D.D.D.D.D.D.D.D.D.D.D.n . . . . . . . . . . . . . . . . . ]       ",
"  j.K.D.D.D.D.D.D.D.D.D.D.0.& . . . . . . . . . . . . . O 8.D.D.D.D.D.D.D.D.D.D.D.D.c . . . . . . . . . . . . . . . . . (       ",
"  j.K.D.D.D.D.D.D.D.D.D.D.u.O . . . . . . . . . . . . . O 6.D.D.D.D.D.D.D.D.D.D.D.S.v + . . . . . . . . . . . . . . . . k       ",
"  ^.K.D.D.D.D.D.D.D.D.D.D.a.& . . . . . . . . . . . . . o 5.D.D.D.D.D.D.D.D.D.D.D.A.s X . . . . . . . . . . . . . . . . y       ",
"  /.S.D.D.D.D.D.D.D.D.D.D.d.: . . . . . . . . . . . . . o 2.D.D.D.D.D.D.D.D.D.D.D.n.s o . . . . . . . . . . . . . . . . > -X    ",
"  [ S.D.D.D.D.D.D.D.D.D.D.N.t . . . . . . . . . . . . . o >.D.D.D.D.D.D.D.D.D.D.D.n.G O . . . . . . . . . . . . . . . . -       ",
"  U S.D.D.D.D.D.D.D.D.D.D.B.3 . . . . . . . . . . . . . o C D.D.D.D.D.D.D.D.D.D.D.F.S o . . . . . . . . . . . . . . . . O x     ",
"  { J.D.D.D.D.D.D.D.D.D.D.V.i . . . . . . . . . . . . . . B D.D.D.D.D.D.D.D.D.D.D.S.D o . . . . . . . . . . . . . . . . o ^     ",
"  { H.D.D.D.D.D.D.D.D.D.D.J.A . . . . . . . . . . . . . . D L.D.D.D.D.D.D.D.D.D.D.I.H o . . . . . . . . . . . . . . . . X x     ",
"  /.J.D.D.D.D.D.D.D.D.D.D.I.H . . . . . . & f ~ ) ) ~ l f G Y.P.L.D.D.K.J.Y.W.{.}.OXQ j ! Q Y j d r 0 : O . . . . . . . . k     ",
"  +X{.f.g.g.Q.W.W.E.f.g.]._._ T r : 0 r T ) *X,X1X,X,X:X=X~ O.+._.].}.#XXX@X>X:X=X      *X*X      / ` ` T d : O . . . . . p     ",
"  *.%X*.=X%X=.` ) ) ..X.%.&XX.&.@.O...  *.&X2X                                                        <X;X#.~ Q Y _ ! d = u     ",
"                                                                                                              -.*.:X=X..! R     ",
"                                                                                                                        ( l -X  ",
"                                                                                                                                ",
"                                                                                                                                ",
"                                                                                                                                "
};
